<ttFont>
          <CharString index="0">
            -107 callgsubr
            endchar
          </CharString>
          <CharString index="1">
            48 392 hlineto
            241 -21 62 -233 -235 -20 -62 -241 vhcurveto
            -392 47 265 414 vlineto
            158 vmoveto
            -113 -414 113 vlineto
            184 12 44 196 194 12 -44 -184 vhcurveto
            return
          </CharString>
          <CharString index="2">
            rmoveto
            259 15 44 308 307 -15 44 -259 -51 callgsubr
            -58 callsubr
            hvcurveto
            44 vmoveto
            -208 -19 6 302 301 19 6 208 208 18 -6 -301 -22 callgsubr
            -208 hvcurveto
            return
          </CharString>
          <CharString index="3">
            rmoveto
            -106 callsubr
            endchar
          </CharString>
          <CharString index="4">
            -75 callgsubr
            vhcurveto
            -101 callgsubr
            return
          </CharString>
          <CharString index="5">
            38 509 -46 -263 hlineto
            -7 callgsubr
            308 -46 -319 39 callsubr
            return
          </CharString>
          <CharString index="6">
            rmoveto
            -422 vlineto
            -13 callgsubr
            -194 -196 -13 44 185 vhcurveto
            422 -47 -391 vlineto
            -243 21 -61 235 233 20 61 243 vhcurveto
            391 vlineto
            return
          </CharString>
          <CharString index="7">
            -216 -215 13 -47 204 hvcurveto
            42 8 callgsubr
            return
          </CharString>
          <CharString index="8">
            -171 0 32 188 188 0 34 171 48 callgsubr
            -188 70 callgsubr
            return
          </CharString>
          <CharString index="9">
            rmoveto
            190 32 71 201 hvcurveto
            443 -46 -262 vlineto
            -121 -46 callgsubr
            146 vhcurveto
            307 -46 -318 vlineto
            -142 24 -56 159 123 38 42 38 14 vhcurveto
            4 -27 hlineto
            -149 -14 -61 -170 -45 -60 2 5 -57 vhcurveto
            -42 vlineto
            -4 41 71 -3 58 hhcurveto
            return
          </CharString>
          <CharString index="10">
            rmoveto
            128 26 33 71 65 -25 16 -49 10 hvcurveto
            2 vlineto
            49 8 21 26 55 vvcurveto
            71 -33 28 -117 -116 -33 -28 -71 -55 22 -26 48 -8 vhcurveto
            -2 vlineto
            -48 -10 -25 -16 -65 vvcurveto
            -71 24 -33 128 vhcurveto
            213 vmoveto
            -85 -21 13 54 54 18 14 88 88 19 -14 -54 -54 -20 -13 -87 hvcurveto
            -176 vmoveto
            -84 -25 10 59 61 20 10 89 89 22 -10 -61 -59 -25 -10 -86 hvcurveto
            endchar
          </CharString>
          <CharString index="11">
            rmoveto
            33 hlineto
            25 0 2 44 12 vhcurveto
            28 7 rlineto
            52 14 7 18 40 vvcurveto
            60 -37 9 -90 -31 -48 -3 -4 -32 vhcurveto
            -30 -57 callsubr
            -43 11 callgsubr
            hvcurveto
            -26 -7 rlineto
            -32 -9 -10 -8 -33 vvcurveto
            return
          </CharString>
          <CharString index="12">
            rmoveto
            69 88 8 80 29 hvcurveto
            5 hlineto
            3 -17 callsubr
            328 hlineto
            151 -31 return
          </CharString>
          <CharString index="13">
            -86 callgsubr
            127 3 59 83 vhcurveto
            return
          </CharString>
          <CharString index="14">
            rmoveto
            -263 vlineto
            -6 -41 -77 -5 -47 hhcurveto
            -210 -26 39 269 303 49 4 220 43 74 -7 -9 59 hvcurveto
            41 vlineto
            11 -53 -88 8 -67 hhcurveto
            -235 -49 -18 callgsubr
            46 -44 238 60 87 7 11 64 hvcurveto
            344 -230 -44 vlineto
            return
          </CharString>
          <CharString index="15">
            rmoveto
            -214 vlineto
            -184 -11 -44 -195 -195 -13 44 184 vhcurveto
            214 -48 -183 vlineto
            -233 20 -65 212 -5 vhcurveto
            -201 48 201 vlineto
            210 5 20 65 233 vvcurveto
            183 vlineto
            return
          </CharString>
          <CharString index="16">
            rmoveto
            -34 -26 callsubr
            -45 vhcurveto
            -60 hlineto
            6 -28 -36 2 -44 hhcurveto
            -203 -13 -48 -216 -214 13 -47 203 205 12 47 214 120 -4 68 -38 37 hvcurveto
            67 1 16 23 77 vvcurveto
            27 vlineto
            -258 -572 rmoveto
            -170 0 32 187 188 0 34 170 48 callgsubr
            -187 70 callgsubr
            return
          </CharString>
          <CharString index="17">
            rmoveto
            -13 callsubr
            -54 hlineto
            6 -35 -44 2 -55 hhcurveto
            -258 -15 -44 -308 -307 15 -44 258 260 15 44 307 181 -5 90 -57 43 hvcurveto
            53 5 13 25 70 vvcurveto
            -52 -414 rmoveto
            -301 72 callsubr
            -207 -19 6 301 302 19 6 207 209 18 -6 -302 vhcurveto
            return
          </CharString>
          <CharString index="18">
            -119 298 rlineto
            103 26 8 85 79 vvcurveto
            102 -9 97 -170 vhcurveto
            -308 -687 48 289 245 hlineto
            4 18 0 1 14 hvcurveto
            114 -290 rlineto
            -156 333 rmoveto
            -239 310 252 hlineto
            133 7 -62 -93 -93 -11 -62 -142 hvcurveto
            return
          </CharString>
          <CharString index="19">
            -105 rlineto
            34 5 hlineto
            -106 -72 callgsubr
            return
          </CharString>
          <CharString index="20">
            -68 callsubr
            -17 39 167 hvcurveto
            370 return
          </CharString>
          <CharString index="21">
            889 rmoveto
            33 hlineto
            24 2 callgsubr
            40 vvcurveto
            61 -37 8 -89 -31 -48 -2 -4 -32 vhcurveto
            -31 -79 callsubr
            26 1 -42 -27 -6 -6 -11 callsubr
            -31 -63 callsubr
            return
          </CharString>
          <CharString index="22">
            886 rmoveto
            -32 callgsubr
            -15 -30 -31 -33 11 -50 callsubr
            -40 -39 13 -40 hhcurveto
            -56 -9 -28 -71 hvcurveto
            32 hlineto
            44 4 15 30 31 34 -10 -11 32 vhcurveto
            -13 40 38 -28 callsubr
            return
          </CharString>
          <CharString index="23">
            -11 callgsubr
            104 100 -104 rlineto
            33 5 hlineto
            -105 133 50 callsubr
            -16 callgsubr
            return
          </CharString>
          <CharString index="24">
            749 73 callgsubr
            131 rlineto
            -53 -5 -21 callsubr
            -131 rlineto
            225 hmoveto
            5 vlineto
            -104 131 rlineto
            -54 -5 -21 callsubr
            -131 rlineto
            return
          </CharString>
          <CharString index="25">
            rmoveto
            -59 callsubr
            -67 -423 hlineto
            -184 -11 -44 -195 -195 -13 44 184 vhcurveto
            423 -47 -392 vlineto
            -242 21 -61 234 234 20 61 242 vhcurveto
            361 19 vlineto
            -14 callgsubr
            vlineto
            return
          </CharString>
          <CharString index="26">
            rmoveto
            43 vlineto
            -6 -39 -60 -4 -46 hhcurveto
            -212 -22 25 283 282 22 25 212 43 57 -4 -6 41 hvcurveto
            41 vlineto
            8 -38 -64 5 -51 hhcurveto
            -231 -38 -43 -308 -313 38 -39 231 50 66 4 7 41 hvcurveto
            endchar
          </CharString>
          <CharString index="27">
            vhcurveto
            308 -46 -319 vlineto
            -142 24 -56 return
          </CharString>
          <CharString index="28">
            vlineto
            3 35 43 2 24 hhcurveto
            71 return
          </CharString>
          <CharString index="29">
            48 276 hlineto
            258 411 rlineto
            -53 hlineto
            -225 -360 rlineto
            -7 hlineto
            -225 360 rlineto
            -54 hlineto
            258 -411 rlineto
            return
          </CharString>
          <CharString index="30">
            99 -88 callsubr
            return
          </CharString>
          <CharString index="31">
            hlineto
            -37 callsubr
            return
          </CharString>
          <CharString index="32">
            -27 callgsubr
            -74 callsubr
            return
          </CharString>
          <CharString index="33">
            100 -105 rlineto
            34 5 hlineto
            -106 -65 callgsubr
            return
          </CharString>
          <CharString index="34">
            rmoveto
            25 callsubr
            vhcurveto
            -26 -6 rlineto
            -32 -10 -10 -8 -32 vvcurveto
            -11 33 vlineto
            25 -44 callgsubr
            28 -51 callsubr
            40 vvcurveto
            61 -37 8 -90 -31 -48 -2 -4 -32 vhcurveto
            -31 -57 callsubr
            -42 hvcurveto
            return
          </CharString>
          <CharString index="35">
            -2 callgsubr
            105 134 -24 callsubr
            -105 -99 105 rlineto
            -34 -5 hlineto
            return
          </CharString>
          <CharString index="36">
            rmoveto
            110 6 24 72 71 -6 26 -110 69 callgsubr
            -72 6 -24 109 hvcurveto
            32 vmoveto
            -77 -1 13 51 50 1 15 77 78 1 -15 -50 -51 -1 -13 -78 hvcurveto
            return
          </CharString>
          <CharString index="37">
            rmoveto
            51 hlineto
            199 687 rlineto
            -48 hlineto
            -173 -610 rlineto
            -6 hlineto
            -193 610 rlineto
            -49 hlineto
            -192 -610 rlineto
            -6 hlineto
            -174 610 rlineto
            -51 hlineto
            200 -687 rlineto
            51 hlineto
            194 605 rlineto
            4 hlineto
            endchar
          </CharString>
          <CharString index="38">
            46 687 -46 -597 -4 hlineto
            -414 597 rlineto
            -48 -687 47 599 4 hlineto
            return
          </CharString>
          <CharString index="39">
            -65 callsubr
            -164 return
          </CharString>
          <CharString index="40">
            -39 callgsubr
            76 134 51 callgsubr
            -55 -63 callgsubr
            return
          </CharString>
          <CharString index="41">
            390 42 -328 hlineto
            326 431 rlineto
            36 -376 -41 315 vlineto
            -327 -431 rlineto
            return
          </CharString>
          <CharString index="42">
            42 vlineto
            -8 -46 -70 -6 -53 hhcurveto
            return
          </CharString>
          <CharString index="43">
            -72 callgsubr
            5 return
          </CharString>
          <CharString index="44">
            vvcurveto
            -178 -153 -96 callgsubr
            return
          </CharString>
          <CharString index="45">
            -145 -22 27 194 193 22 27 141 89 48 -22 -58 20 hvcurveto
            12 -34 1 -46 -48 vvcurveto
            -71 0 -45 -15 -45 vhcurveto
            return
          </CharString>
          <CharString index="46">
            rmoveto
            11 callgsubr
            vhcurveto
            -26 -7 rlineto
            -32 -9 -10 -8 -33 vvcurveto
            -10 33 vlineto
            25 0 2 44 12 vhcurveto
            28 7 rlineto
            52 14 7 18 40 vvcurveto
            60 -37 9 -90 -31 -48 -3 -4 -32 vhcurveto
            -30 -57 callsubr
            -43 hvcurveto
            return
          </CharString>
          <CharString index="47">
            rmoveto
            -44 vlineto
            183 3 8 9 256 vvcurveto
            419 -48 -439 vlineto
            -196 -2 -5 -141 -3 vhcurveto
            endchar
          </CharString>
          <CharString index="48">
            -34 -26 callsubr
            -46 vhcurveto
            return
          </CharString>
          <CharString index="49">
            -308 15 -44 259 return
          </CharString>
          <CharString index="50">
            -79 callsubr
            27 1 return
          </CharString>
          <CharString index="51">
            46 468 135 41 -135 114 hlineto
            66 28 14 107 vhcurveto
            39 vlineto
            -122 -59 -11 -116 hvcurveto
            -106 -107 -41 107 vlineto
            return
          </CharString>
          <CharString index="52">
            rmoveto
            120 23 25 98 94 -37 12 -98 -79 -24 -15 -12 -13 hvcurveto
            -4 -21 callsubr
            13 20 112 29 43 -3 -3 37 vhcurveto
            35 vlineto
            5 -40 -48 4 -29 hhcurveto
            -86 -44 -13 -59 -18 hvcurveto
            -9 -30 -2 -40 -55 vvcurveto
            -50 1 -38 6 -25 vhcurveto
            -68 18 43 -7 86 hhcurveto
            -4 37 rmoveto
            -83 -23 7 84 48 9 16 97 88 18 -5 -74 -72 -20 -4 -86 hvcurveto
            endchar
          </CharString>
          <CharString index="53">
            -61 callgsubr
            -32 vvcurveto
            return
          </CharString>
          <CharString index="54">
            85 487 886 -83 callgsubr
            76 -886 rmoveto
            -106 callsubr
            return
          </CharString>
          <CharString index="55">
            -2 callgsubr
            106 -64 callsubr
            -34 vlineto
            -100 -105 -99 105 rlineto
            -34 -5 hlineto
            return
          </CharString>
          <CharString index="56">
            8 rlineto
            52 14 7 17 return
          </CharString>
          <CharString index="57">
            10 -32 vhcurveto
            14 return
          </CharString>
          <CharString index="58" raw="1">
            9006721d 0b  
          </CharString>
          <CharString index="59">
            53 471 886 -83 callgsubr
            122 -886 rmoveto
            -103 callgsubr
            return
          </CharString>
          <CharString index="60">
            rmoveto
            20 0 11 3 14 vhcurveto
            3 10 9 8 14 6 43 18 46 16 39 15 rrcurveto
            52 21 19 20 62 vvcurveto
            91 -60 5 -73 -43 -54 -4 -5 -32 vhcurveto
            -35 vlineto
            4 39 50 2 28 hhcurveto
            81 21 -7 -56 -35 -9 -12 -40 -17 hvcurveto
            -37 -15 -41 -15 -35 -14 rrcurveto
            -64 -26 -1 -18 -85 vvcurveto
            -43 270 38 -228 vlineto
            endchar
          </CharString>
          <CharString index="61">
            -1 -91 -164 return
          </CharString>
          <CharString index="62">
            46 rmoveto
            32 50 rlineto
            -83 52 -55 91 105 vvcurveto
            104 56 92 82 51 vhcurveto
            -32 51 rlineto
            -99 -62 -67 -111 -125 vvcurveto
            -126 67 -110 99 -62 vhcurveto
            return
          </CharString>
          <CharString index="63">
            664 -80 callgsubr
            return
          </CharString>
          <CharString index="64">
            110 319 rmoveto
            40 369 -30 hlineto
            -88 -50 rlineto
            -41 vlineto
            78 40 rlineto
            return
          </CharString>
          <CharString index="65">
            vhcurveto
            -13 40 -20 callgsubr
            return
          </CharString>
          <CharString index="66">
            603 -75 callsubr
            return
          </CharString>
          <CharString index="67">
            rmoveto
            49 75 6 8 55 hvcurveto
            42 vlineto
            -7 -60 -70 -5 -39 hhcurveto
            -121 -42 14 114 94 14 19 89 30 hvcurveto
            27 10 rlineto
            61 21 19 11 75 vvcurveto
            85 -45 -79 vlineto
            -54 -4 -2 -65 -24 vhcurveto
            -53 -19 rlineto
            -85 -30 -6 -59 -87 vvcurveto
            -131 61 -32 140 vhcurveto
            endchar
          </CharString>
          <CharString index="68">
            46 rmoveto
            99 62 67 110 126 vvcurveto
            125 -67 111 -99 62 vhcurveto
            -32 -51 rlineto
            82 -51 56 -92 -104 vvcurveto
            -105 -55 -91 -83 -52 vhcurveto
            -31 51 rmoveto
            65 41 44 73 83 vvcurveto
            83 -44 73 -66 41 vhcurveto
            -32 -51 rlineto
            49 -31 33 -54 -61 vvcurveto
            -62 -33 -53 -48 -31 vhcurveto
            return
          </CharString>
          <CharString index="69">
            -8 rmoveto
            220 38 64 128 120 -43 28 -82 17 hvcurveto
            4 vlineto
            83 14 36 48 100 vvcurveto
            127 -51 54 -201 -202 -51 -54 -127 -100 37 -48 82 -14 vhcurveto
            -4 vlineto
            -82 -17 -43 -28 -120 vvcurveto
            -128 38 -64 221 vhcurveto
            378 vmoveto
            -164 return
          </CharString>
          <CharString index="70">
            -106 -63 callgsubr
            return
          </CharString>
          <CharString index="71">
            33 callgsubr
            -40 -39 13 -40 hhcurveto
            -56 -9 -28 -72 hvcurveto
            32 hlineto
            44 4 16 30 return
          </CharString>
          <CharString index="72">
            rmoveto
            46 509 -46 hlineto
            return
          </CharString>
          <CharString index="73">
            rmoveto
            -35 vlineto
            -5 34 50 -3 34 hhcurveto
            123 28 33 87 70 -16 38 -117 -33 -35 -2 -4 -24 hvcurveto
            121 196 37 -236 -196 vlineto
            4 38 39 3 22 hhcurveto
            102 22 -10 -66 -61 -20 -17 -95 -27 -47 3 3 -38 hvcurveto
            endchar
          </CharString>
          <CharString index="74">
            vhcurveto
            -42 vlineto
            7 return
          </CharString>
          <CharString index="75">
            rmoveto
            51 65 -51 hlineto
            return
          </CharString>
          <CharString index="76">
            -27 -6 -6 -52 return
          </CharString>
          <CharString index="77">
            rmoveto
            -36 0 callgsubr
            128 3 59 83 vhcurveto
            endchar
          </CharString>
          <CharString index="78">
            rmoveto
            93 1 -37 -71 hvcurveto
            36 hlineto
            83 -2 59 -128 -128 -3 -59 -83 vhcurveto
            36 hlineto
            71 2 37 93 vhcurveto
            return
          </CharString>
          <CharString index="79">
            -73 callgsubr
            71 hvcurveto
            return
          </CharString>
          <CharString index="80">
            rmoveto
            -32 hlineto
            -44 -4 -16 -30 -31 -34 -97 callgsubr
            -40 callgsubr
            endchar
          </CharString>
          <CharString index="81">
            vlineto
            -49 -6 -14 return
          </CharString>
          <CharString index="82">
            rmoveto
            16 callgsubr
            -5 35 vlineto
            return
          </CharString>
          <CharString index="83">
            -10 callgsubr
            -100 return
          </CharString>
          <CharString index="84">
            5 callgsubr
            3 -17 callsubr
            return
          </CharString>
          <CharString index="85">
            -259 -15 -44 return
          </CharString>
          <CharString index="86">
            hlineto
            125 return
          </CharString>
          <CharString index="87">
            rmoveto
            -36 60 callgsubr
            return
          </CharString>
          <CharString index="88">
            -41 hvcurveto
            -42 vlineto
            7 37 77 5 46 hhcurveto
            146 25 -11 -142 hvcurveto
            -41 -215 vlineto
            -118 -33 -34 -109 -121 58 -26 124 80 86 8 87 37 hvcurveto
            -73 24 return
          </CharString>
          <CharString index="89">
            -24 callgsubr
            55 -159 -122 -38 -42 -38 -15 vhcurveto
            -4 305 -46 -742 46 264 hlineto
            120 1 91 164 128 23 -21 -145 vhcurveto
            return
          </CharString>
          <CharString index="90">
            -80 rlineto
            38 return
          </CharString>
          <CharString index="91">
            58 callgsubr
            -36 -11 19 25 40 36 55 27 23 hvcurveto
            -44 hlineto
            -36 -36 -26 -50 -41 vvcurveto
            -41 21 -32 59 11 6 0 1 10 vhcurveto
            endchar
          </CharString>
          <CharString index="92">
            42 vlineto
            -7 -32 -51 -5 -41 hhcurveto
            return
          </CharString>
          <CharString index="93" raw="1">
            be1d220b   
          </CharString>
          <CharString index="94">
            27 -39 -59 callsubr
            return
          </CharString>
          <CharString index="95">
            47 hlineto
            449 688 rlineto
            return
          </CharString>
          <CharString index="96">
            -51 -61 callgsubr
            return
          </CharString>
          <CharString index="97">
            -233 198 -85 rmoveto
            116 259 -96 -41 rlineto
            344 vlineto
            96 -40 -116 259 -117 -259 96 40 rlineto
            -344 vlineto
            -96 41 rlineto
            return
          </CharString>
          <CharString index="98">
            rmoveto
            188 0 34 171 49 35 -3 -8 25 vhcurveto
            -251 -401 rlineto
            -29 29 0 57 104 vvcurveto
            171 -220 rmoveto
            -49 -35 3 8 -25 hvcurveto
            return
          </CharString>
          <CharString index="99">
            124 41 -124 49 callgsubr
            -41 107 return
          </CharString>
          <CharString index="100">
            -7 callgsubr
            309 -46 -320 39 callsubr
            return
          </CharString>
          <CharString index="101">
            86 564 688 rmoveto
            -423 vlineto
            -13 callgsubr
            -195 -196 -13 44 185 vhcurveto
            423 -47 -392 vlineto
            -243 21 -61 235 return
          </CharString>
          <CharString index="102">
            -208 -19 6 302 302 19 6 208 209 18 -6 -302 return
          </CharString>
          <CharString index="103">
            46 320 hlineto
            142 return
          </CharString>
          <CharString index="104">
            rmoveto
            229 46 -229 hlineto
            endchar
          </CharString>
          <CharString index="105">
            -92 -6 -8 -54 vhcurveto
            -42 vlineto
            6 65 89 6 52 hhcurveto
            148 37 -20 -112 -72 -16 -28 -74 -32 hvcurveto
            -68 -30 -73 -32 -59 -25 rrcurveto
            return
          </CharString>
          <CharString index="106">
            rmoveto
            32 51 rlineto
            -14 9 -10 16 20 vvcurveto
            20 10 16 15 9 vhcurveto
            -32 51 rlineto
            -32 -20 -21 -35 -41 vvcurveto
            -42 21 -34 31 -20 vhcurveto
            return
          </CharString>
          <CharString index="107">
            31 330 -8 rmoveto
            241 5 44 308 308 -5 44 -241 -242 -5 69 callsubr
            5 -44 242 hvcurveto
            return
          </CharString>
          <CharString index="108">
            -267 rmoveto
            -48 -5 -34 -16 -35 vhcurveto
            -55 -26 -66 -5 -67 hhcurveto
            -115 -26 19 88 90 23 13 96 hvcurveto
            202 hlineto
            endchar
          </CharString>
          <CharString index="109">
            136 6 rlineto
            31 vlineto
            -136 6 -6 183 rlineto
            -32 hlineto
            -6 -183 -137 -6 rlineto
            -31 vlineto
            137 -6 rlineto
            return
          </CharString>
          <CharString index="110">
            73 callgsubr
            72 callgsubr
            -5 hlineto
            126 -16 callgsubr
            return
          </CharString>
          <CharString index="111">
            rmoveto
            33 -21 callsubr
            71 callsubr
            return
          </CharString>
          <CharString index="112">
            -263 hlineto
            49 callsubr
            return
          </CharString>
          <CharString index="113">
            809 -32 callsubr
            return
          </CharString>
          <CharString index="114">
            vmoveto
            -234 -7 21 301 301 7 21 234 236 6 -21 -301 -301 -6 -21 -236 hvcurveto
            return
          </CharString>
          <CharString index="115">
            rmoveto
            75 6 4 27 63 vvcurveto
            71 -6 26 -110 -110 -6 -26 -71 -63 5 -27 74 -6 vhcurveto
            -267 return
          </CharString>
          <CharString index="116">
            111 8 28 140 139 -8 29 -111 -111 -9 -29 -139 -140 9 -28 111 hvcurveto
            return
          </CharString>
          <CharString index="117">
            rmoveto
            52 135 hlineto
            81 -5 167 -3 126 vhcurveto
            -36 hlineto
            -3 -126 -5 -167 -81 vvcurveto
            endchar
          </CharString>
          <CharString index="118">
            -67 488 256 rmoveto
            200 -10 62 -185 -211 -10 -67 -197 -207 27 -55 192 return
          </CharString>
          <CharString index="119">
            113 -23 17 -89 9 return
          </CharString>
          <CharString index="120">
            604 -49 callgsubr
            return
          </CharString>
          <CharString index="121">
            46 223 vlineto
            -29 28 43 -12 66 hhcurveto
            123 39 41 47 17 hvcurveto
            5 hlineto
            3 -17 callsubr
            return
          </CharString>
          <CharString index="122">
            664 rmoveto
            51 66 -51 hlineto
            return
          </CharString>
          <CharString index="123">
            hlineto
            -278 688 rlineto
            -52 hlineto
            -278 -688 rlineto
            50 hlineto
            86 213 rlineto
            335 hlineto
            return
          </CharString>
          <CharString index="124">
            36 536 rmoveto
            -26 vlineto
            71 15 21 81 hvcurveto
            76 -58 -3 callgsubr
            -49 -6 -13 -46 vhcurveto
            return
          </CharString>
          <CharString index="125">
            77 99 rmoveto
            38 hlineto
            132 205 -132 206 rlineto
            -38 hlineto
            118 -206 rlineto
            return
          </CharString>
          <CharString index="126">
            36 -80 rmoveto
            -25 vlineto
            71 15 20 81 hvcurveto
            77 -58 -73 24 -17 -26 callsubr
            -46 vhcurveto
            return
          </CharString>
          <CharString index="127">
            64 510 rmoveto
            58 73 -24 17 hlineto
            49 6 14 46 vhcurveto
            25 vlineto
            -71 -15 -21 -80 hvcurveto
            return
          </CharString>
          <CharString index="128">
            -181 11 -105 115 -34 vhcurveto
            -6 vlineto
            -40 4 -39 3 -40 3 rrcurveto
            -5 hlineto
            endchar
          </CharString>
          <CharString index="129">
            rmoveto
            24 -17 hlineto
            -47 -6 -12 -46 vhcurveto
            -26 vlineto
            71 15 20 79 hvcurveto
            76 -58 vlineto
            endchar
          </CharString>
          <CharString index="130">
            47 642 228 45 -504 -45 229 hlineto
            return
          </CharString>
          <CharString index="131">
            -72 callgsubr
            -56 -5 hlineto
            return
          </CharString>
          <CharString index="132">
            -31 callsubr
            -14 return
          </CharString>
          <CharString index="133">
            hhcurveto
            145 65 -17 -125 -114 -73 -25 -67 hvcurveto
            -136 -44 136 hlineto
            106 return
          </CharString>
          <CharString index="134">
            rmoveto
            207 hlineto
            269 16 42 301 302 -16 42 -269 hvcurveto
            -207 hlineto
            return
          </CharString>
          <CharString index="135">
            48 callsubr
            endchar
          </CharString>
          <CharString index="136">
            rmoveto
            50 1 15 77 77 1 -15 -50 -51 -1 -14 -77 -77 -1 14 51 vhcurveto
            -73 return
          </CharString>
          <CharString index="137">
            rmoveto
            26 vlineto
            -71 -15 -20 -79 hvcurveto
            -76 58 73 -24 17 vlineto
            47 6 12 46 vhcurveto
            return
          </CharString>
          <CharString index="138">
            rmoveto
            103 44 6 101 hvcurveto
            603 -46 -615 vlineto
            -44 -9 -12 -92 vhcurveto
            endchar
          </CharString>
          <CharString index="139">
            rlineto
            192 -5 rmoveto
            33 hlineto
            return
          </CharString>
          <CharString index="140">
            hhcurveto
            -203 -37 -46 -174 -168 60 -21 179 142 45 25 27 return
          </CharString>
          <CharString index="141">
            -69 -45 69 hlineto
            190 -282 rmoveto
            -142 282 124 45 -124 return
          </CharString>
          <CharString index="142">
            6 0 1 11 vhcurveto
            38 vlineto
            -1 return
          </CharString>
          <CharString index="143">
            44 -383 282 336 44 -336 274 383 44 -431 return
          </CharString>
          <CharString index="144">
            603 44 callgsubr
            return
          </CharString>
          <CharString index="145">
            -94 callgsubr
            endchar
          </CharString>
          <CharString index="146">
            vlineto
            -142 24 -56 159 5 callgsubr
            return
          </CharString>
          <CharString index="147">
            -688 rmoveto
            42 84 55 39 -55 148 -38 hlineto
            -3 -148 rlineto
            return
          </CharString>
          <CharString index="148">
            hhcurveto
            146 21 -28 -193 -193 -21 -27 -146 hvcurveto
            endchar
          </CharString>
          <CharString index="149">
            hvcurveto
            -56 -90 rlineto
            46 hlineto
            44 69 rlineto
            -17 40 59 -5 85 hhcurveto
            return
          </CharString>
          <CharString index="150">
            730 rmoveto
            -51 -66 51 hlineto
            182 66 rmoveto
            -51 -66 51 hlineto
            return
          </CharString>
          <CharString index="151">
            239 17 -6 -294 -294 -14 -6 -242 hvcurveto
            endchar
          </CharString>
          <CharString index="152">
            43 376 -33 hlineto
            -96 -51 rlineto
            -39 vlineto
            86 42 rlineto
            endchar
          </CharString>
          <CharString index="153">
            -105 24 callsubr
            return
          </CharString>
          <CharString index="154">
            -50 -17 -50 -22 -84 hhcurveto
            return
          </CharString>
          <CharString index="155">
            399 41 -399 hlineto
            return
          </CharString>
          <CharString index="156">
            -120 -46 callsubr
            return
          </CharString>
          <CharString index="157">
            rlineto
            -55 hlineto
            -106 return
          </CharString>
          <CharString index="158">
            hlineto
            142 246 rlineto
            -44 hlineto
            -145 -253 rlineto
            -32 return
          </CharString>
          <CharString index="159">
            44 1 10 28 13 vhcurveto
            40 17 40 17 34 15 rrcurveto
            52 return
          </CharString>
          <CharString index="160">
            hlineto
            -198 234 rmoveto
            120 33 -19 -162 hvcurveto
            -15 return
          </CharString>
          <CharString index="161">
            rlineto
            50 hlineto
            108 213 rlineto
            336 hlineto
            -122 return
          </CharString>
          <CharString index="162">
            30 rrcurveto
            94 41 32 32 114 vvcurveto
            157 -97 10 return
          </CharString>
          <CharString index="163">
            -74 callgsubr
            endchar
          </CharString>
          <CharString index="164">
            rmoveto
            35 -21 callsubr
            -72 callgsubr
            return
          </CharString>
          <CharString index="165">
            -4 -16 -30 -31 -34 return
          </CharString>
          <CharString index="166">
            vlineto
            -105 -63 callgsubr
            return
          </CharString>
          <CharString index="167">
            121 -7 29 -117 -116 -9 -29 -121 return
          </CharString>
          <CharString index="168">
            -514 33 291 rmoveto
            31 hlineto
            17 219 rlineto
            return
          </CharString>
          <CharString index="169">
            -8 rmoveto
            215 39 70 122 112 -49 41 return
          </CharString>
          <CharString index="170">
            -21 -125 -120 -50 -24 -160 hvcurveto
            endchar
          </CharString>
          <CharString index="171">
            -22 -84 hhcurveto
            endchar
          </CharString>
          <CharString index="172">
            -5 77 151 vvcurveto
            227 -308 rmoveto
            -76 return
          </CharString>
          <CharString index="173">
            -55 -177 rcurveline
            -5 50 vlineto
            41 182 rlineto
            return
          </CharString>
          <CharString index="174">
            -39 -172 -46 -80 5 7 -69 hvcurveto
            endchar
          </CharString>
          <CharString index="175">
            rmoveto
            -228 -46 228 hlineto
            return
          </CharString>
          <CharString index="176">
            -44 -308 -308 return
          </CharString>
          <CharString index="177">
            hlineto
            -118 205 118 206 rlineto
            return
          </CharString>
          <CharString index="178">
            132 rlineto
            5 return
          </CharString>
          <CharString index="179">
            -18 -6 -209 return
          </CharString>
        <CharString name=".notdef">
          -128 0 vmoveto
          500 700 -500 hlineto
          450 -50 rmoveto
          -600 -400 600 vlineto
          179 -435 rmoveto
          53 53 hlineto
          33 21 18 23 19 vhcurveto
          30 26 37 36 67 vvcurveto
          12 -3 123 -140 -140 -11 -124 -23 -12 2 -13 2 -6 vhcurveto
          49 28 hlineto
          23 8 77 90 77 12 -59 -28 -51 -28 -24 -28 -23 vhcurveto
          -28 -23 -26 -23 -43 vvcurveto
          -4 -179 rmoveto
          60 70 -60 hlineto
          endchar
        </CharString>
        <CharString name="A">
          54 594 hmoveto
          51 16 callsubr
          -165 414 rmoveto
          148 -369 rlineto
          -301 hlineto
          148 369 rlineto
          endchar
        </CharString>
        <CharString name="A.ss01">
          86 564 hmoveto
          48 392 hlineto
          242 -21 62 -234 -235 -20 -62 -242 vhcurveto
          -392 47 265 415 vlineto
          158 vmoveto
          -113 -415 113 vlineto
          185 12 44 196 195 12 -44 -185 vhcurveto
          endchar
        </CharString>
        <CharString name="AE">
          320 555 hmoveto
          55 callgsubr
          -348 hlineto
          -83 274 rlineto
          478 44 -544 hlineto
          -349 -688 54 callsubr
          414 rmoveto
          109 -369 rlineto
          -302 hlineto
          188 369 rlineto
          endchar
        </CharString>
        <CharString name="AEacute">
          319 445 748 -70 callgsubr
          109 -753 rmoveto
          55 callgsubr
          -347 hlineto
          -83 273 rlineto
          477 44 -543 hlineto
          -349 -687 54 callsubr
          413 rmoveto
          109 -368 rlineto
          -302 hlineto
          188 368 rlineto
          endchar
        </CharString>
        <CharString name="Aacute">
          54 310 749 -94 callgsubr
          283 -754 -102 callgsubr
        </CharString>
        <CharString name="Aacute.ss01">
          86 323 749 -94 callgsubr
          240 -754 -104 callsubr
        </CharString>
        <CharString name="Abreve">
          -48 callsubr
          endchar
        </CharString>
        <CharString name="Abreve.ss01">
          -53 callsubr
          endchar
        </CharString>
        <CharString name="Acircumflex">
          54 207 749 -75 callsubr
          386 -754 -102 callgsubr
        </CharString>
        <CharString name="Acircumflex.ss01">
          86 226 749 -75 callsubr
          337 -754 -104 callsubr
        </CharString>
        <CharString name="Adieresis">
          54 225 770 -80 callgsubr
          186 -836 -102 callgsubr
        </CharString>
        <CharString name="Adieresis.ss01">
          86 242 770 -80 callgsubr
          139 -836 -104 callsubr
        </CharString>
        <CharString name="Agrave">
          54 336 749 -74 callgsubr
          383 -883 -102 callgsubr
        </CharString>
        <CharString name="Agrave.ss01">
          86 357 749 -74 callgsubr
          332 -883 -104 callsubr
        </CharString>
        <CharString name="Amacron">
          53 227 839 -43 callgsubr
          366 -885 -102 callgsubr
        </CharString>
        <CharString name="Amacron.ss01">
          85 243 839 -43 callgsubr
          320 -885 -104 callsubr
        </CharString>
        <CharString name="Aogonek">
          54 577 -114 rmoveto
          38 32 51 27 25 vhcurveto
          9 16 callsubr
          85 -212 rlineto
          -34 -35 -25 -49 -40 vvcurveto
          -41 22 -32 59 9 6 0 1 11 vhcurveto
          71 callgsubr
          19 25 hvcurveto
          -387 372 45 callgsubr
        </CharString>
        <CharString name="Aogonek.ss01">
          85 606 hmoveto
          5 392 hlineto
          241 -21 62 -233 -235 -20 -62 -241 vhcurveto
          -392 47 265 414 -264 vlineto
          -34 -36 -25 -48 -40 vvcurveto
          -41 21 -32 59 11 6 0 1 10 vhcurveto
          58 callgsubr
          -36 -11 19 25 38 32 51 27 25 hvcurveto
          -457 310 rmoveto
          113 vlineto
          184 12 44 196 194 12 -44 -184 vhcurveto
          -113 vlineto
          endchar
        </CharString>
        <CharString name="Aring">
          54 378 663 8 callsubr
          -663 rlineto
          50 hlineto
          86 213 rlineto
          335 hlineto
          86 -213 rlineto
          51 hlineto
          -382 759 29 callsubr
          -501 45 callgsubr
        </CharString>
        <CharString name="Aring.ss01">
          86 355 747 -71 callsubr
          208 -779 -104 callsubr
        </CharString>
        <CharString name="Aringacute">
          53 478 1049 -33 callgsubr
          26 -254 8 callsubr
          -662 rlineto
          50 hlineto
          86 213 rlineto
          334 hlineto
          86 -213 rlineto
          51 hlineto
          -381 758 29 callsubr
          -500 rmoveto
          148 368 rlineto
          5 hlineto
          148 -368 rlineto
          endchar
        </CharString>
        <CharString name="Aringacute.ss01">
          85 336 948 -70 callgsubr
          21 -229 -21 callgsubr
          -756 -104 callsubr
        </CharString>
        <CharString name="Atilde">
          54 515 860 rmoveto
          -32 hlineto
          -44 -4 -16 -30 -31 -34 -97 callgsubr
          -40 callgsubr
          78 -860 -102 callgsubr
        </CharString>
        <CharString name="Atilde.ss01">
          86 528 860 rmoveto
          -32 hlineto
          -44 -4 -16 -30 -31 -34 -97 callgsubr
          -40 callgsubr
          35 -860 -104 callsubr
        </CharString>
        <CharString name="B">
          57 111 hmoveto
          302 hlineto
          164 26 92 88 73 -16 79 -109 18 hvcurveto
          4 vlineto
          85 16 32 60 86 vvcurveto
          101 -38 71 -136 vhcurveto
          -310 hlineto
          297 -317 rmoveto
          -249 273 249 hlineto
          109 30 -44 -93 -87 -49 -49 -90 hvcurveto
          3 -327 rmoveto
          -252 283 252 hlineto
          103 41 -45 -97 -95 -34 -46 -110 hvcurveto
          endchar
        </CharString>
        <CharString name="C">
          -52 514 3 rmoveto
          43 vlineto
          -6 -40 -60 -4 -46 hhcurveto
          -212 -22 25 283 283 22 25 212 43 57 -4 -6 42 hvcurveto
          41 vlineto
          8 -39 -64 5 -51 hhcurveto
          -231 -38 -43 -309 -313 38 -39 231 50 66 4 7 42 hvcurveto
          endchar
        </CharString>
        <CharString name="Cacute">
          -53 264 748 -70 callgsubr
          249 -750 -81 callsubr
        </CharString>
        <CharString name="Cacute.loclPLK">
          -53 264 748 -67 callsubr
          249 -750 -81 callsubr
        </CharString>
        <CharString name="Ccaron">
          -53 261 -82 callgsubr
          358 -878 -81 callsubr
        </CharString>
        <CharString name="Ccedilla">
          -53 368 36 rmoveto
          -212 -22 25 283 282 22 25 212 43 57 -4 -6 41 hvcurveto
          41 vlineto
          8 -38 -64 5 -51 hhcurveto
          -231 -38 -43 -308 -269 28 -67 155 -13 hvcurveto
          -56 -180 rlineto
          -5 50 vlineto
          41 183 rlineto
          -1 16 17 0 18 hhcurveto
          50 66 4 7 41 hvcurveto
          43 vlineto
          -6 -39 -60 -4 -46 hhcurveto
          endchar
        </CharString>
        <CharString name="Ccircumflex">
          -53 155 -84 callsubr
          358 -750 -81 callsubr
        </CharString>
        <CharString name="Cdotaccent">
          -53 262 6 callsubr
          251 -871 -81 callsubr
        </CharString>
        <CharString name="D">
          18 callgsubr
          hlineto
          48 -644 rmoveto
          600 142 vlineto
          44 callsubr
        </CharString>
        <CharString name="Dcaron">
          62 319 -82 callgsubr
          -102 -881 rmoveto
          -50 callgsubr
          endchar
        </CharString>
        <CharString name="Dcroat">
          62 20 callgsubr
          -316 34 callsubr
          272 142 hlineto
          238 17 -6 -293 -294 -14 -6 -241 hvcurveto
          endchar
        </CharString>
        <CharString name="E">
          -29 111 hmoveto
          431 36 callsubr
          hlineto
          endchar
        </CharString>
        <CharString name="Eacute">
          -29 297 749 -94 callgsubr
          -186 -754 rmoveto
          -90 callgsubr
          endchar
        </CharString>
        <CharString name="Ebreve">
          -30 456 886 -83 callgsubr
          -345 -886 rmoveto
          -90 callgsubr
          endchar
        </CharString>
        <CharString name="Ecaron">
          -30 300 -82 callgsubr
          -83 -881 rmoveto
          -90 callgsubr
          endchar
        </CharString>
        <CharString name="Ecircumflex">
          -29 198 749 -75 callsubr
          -87 -754 rmoveto
          -90 callgsubr
          endchar
        </CharString>
        <CharString name="Edieresis">
          -29 218 770 -80 callgsubr
          -289 -836 rmoveto
          -90 callgsubr
          endchar
        </CharString>
        <CharString name="Edotaccent">
          -30 301 6 callsubr
          -190 -874 rmoveto
          -90 callgsubr
          endchar
        </CharString>
        <CharString name="Egrave">
          -29 325 749 -74 callgsubr
          -88 -883 rmoveto
          -90 callgsubr
          endchar
        </CharString>
        <CharString name="Emacron">
          -30 212 839 -43 callgsubr
          -101 -885 rmoveto
          -90 callgsubr
          endchar
        </CharString>
        <CharString name="Eng">
          36 callgsubr
          -688 47 600 4 hlineto
          416 -600 rlineto
          -105 vlineto
          -44 -9 -12 -91 vhcurveto
          -39 vlineto
          102 44 6 101 hvcurveto
          781 vlineto
          endchar
        </CharString>
        <CharString name="Eogonek">
          -29 512 -196 rmoveto
          12 7 0 1 7 hvcurveto
          38 vlineto
          -1 -7 -5 0 -5 hhcurveto
          -35 -11 20 23 41 38 52 29 22 hvcurveto
          36 callsubr
          -688 387 vlineto
          -39 -36 -27 -46 -43 vvcurveto
          -38 21 -33 59 vhcurveto
          endchar
        </CharString>
        <CharString name="Eth">
          18 callgsubr
          -317 34 callsubr
          273 142 hlineto
          44 callsubr
        </CharString>
        <CharString name="Euro">
          -5 402 -8 rmoveto
          56 66 5 6 36 hvcurveto
          43 vlineto
          -5 -35 -60 -5 -50 hhcurveto
          -186 -39 18 195 -7 hvcurveto
          324 40 -325 113 325 40 -324 hlineto
          192 7 40 18 185 hhcurveto
          46 60 -5 -5 35 hvcurveto
          41 vlineto
          6 -33 -64 7 -57 hhcurveto
          -203 -53 -34 -220 -11 hvcurveto
          -95 -40 94 -113 -94 -40 95 hlineto
          -227 10 53 -30 204 hhcurveto
          endchar
        </CharString>
        <CharString name="F">
          -67 111 hmoveto
          48 311 326 45 -326 288 363 44 -411 hlineto
          endchar
        </CharString>
        <CharString name="G">
          52 536 310 rmoveto
          -263 vlineto
          -6 -42 -77 -5 -47 hhcurveto
          -210 -26 39 269 304 49 4 220 43 75 -7 -9 59 hvcurveto
          41 vlineto
          11 -53 -89 8 -67 hhcurveto
          -235 -49 69 callsubr
          46 -44 238 60 88 7 11 64 hvcurveto
          344 -231 -44 vlineto
          endchar
        </CharString>
        <CharString name="G.ss01">
          68 370 -8 rmoveto
          235 9 53 253 hvcurveto
          65 -227 -44 179 -23 vlineto
          -236 -10 -24 -187 -209 -26 37 271 304 50 4 228 42 76 -7 -9 60 vhcurveto
          41 vlineto
          11 -53 -90 8 -68 hhcurveto
          -241 -51 69 callsubr
          44 -44 239 hvcurveto
          endchar
        </CharString>
        <CharString name="G_tilde.loclGUA">
          51 513 -85 callsubr
          22 -576 -93 callsubr
          endchar
        </CharString>
        <CharString name="Gbreve">
          51 470 886 -83 callgsubr
          65 -576 -93 callsubr
          endchar
        </CharString>
        <CharString name="Gbreve.ss01">
          67 477 886 -83 callgsubr
          -107 -894 -93 callgsubr
          endchar
        </CharString>
        <CharString name="Gcaron">
          51 314 -82 callgsubr
          327 -571 -93 callsubr
          endchar
        </CharString>
        <CharString name="Gcaron.ss01">
          67 321 -82 callgsubr
          155 -889 -93 callgsubr
          endchar
        </CharString>
        <CharString name="Gcircumflex">
          51 208 -84 callsubr
          327 -443 -93 callsubr
          endchar
        </CharString>
        <CharString name="Gcircumflex.ss01">
          67 215 -84 callsubr
          155 -761 -93 callgsubr
          endchar
        </CharString>
        <CharString name="Gcommaaccent">
          51 535 310 -93 callsubr
          -54 -521 -84 callgsubr
        </CharString>
        <CharString name="Gcommaaccent.ss01">
          67 370 -8 -93 callgsubr
          -65 -203 -84 callgsubr
        </CharString>
        <CharString name="Gdotaccent">
          51 315 6 callsubr
          220 -564 -93 callsubr
          endchar
        </CharString>
        <CharString name="Gdotaccent.ss01">
          67 322 6 callsubr
          48 -882 -93 callgsubr
          endchar
        </CharString>
        <CharString name="Gtilde.loclGUA.ss01">
          67 520 -85 callsubr
          -150 -894 -93 callgsubr
          endchar
        </CharString>
        <CharString name="H">
          108 576 hmoveto
          48 688 -48 -318 -417 318 -48 -688 48 325 417 hlineto
          endchar
        </CharString>
        <CharString name="Hbar">
          108 576 688 rmoveto
          -152 -417 152 -48 -688 48 302 417 -302 48 688 vlineto
          -465 -341 rmoveto
          144 417 -144 vlineto
          endchar
        </CharString>
        <CharString name="Hcircumflex">
          107 235 -84 callsubr
          340 -753 rmoveto
          31 callgsubr
          endchar
        </CharString>
        <CharString name="I">
          -358 111 hmoveto
          48 688 -48 hlineto
          endchar
        </CharString>
        <CharString name="IJ">
          -28 111 hmoveto
          42 callgsubr
          hlineto
          197 -643 -60 callsubr
        </CharString>
        <CharString name="Iacute">
          -358 105 749 -94 callgsubr
          6 -754 -35 callgsubr
        </CharString>
        <CharString name="Iacute_J.loclNLD">
          -28 111 748 -70 callgsubr
          340 -5 -70 callgsubr
          -340 -753 rmoveto
          42 callgsubr
          hlineto
          197 -643 -60 callsubr
        </CharString>
        <CharString name="Ibreve">
          -358 264 886 -83 callgsubr
          -153 -886 -35 callgsubr
        </CharString>
        <CharString name="Icircumflex">
          -358 2 749 -75 callsubr
          109 -754 -35 callgsubr
        </CharString>
        <CharString name="Idieresis">
          -358 18 769 -80 callgsubr
          -89 -835 -35 callgsubr
        </CharString>
        <CharString name="Idotaccent">
          -358 109 6 callsubr
          2 -874 -35 callgsubr
        </CharString>
        <CharString name="Igrave">
          -358 133 749 -74 callgsubr
          104 -883 -35 callgsubr
        </CharString>
        <CharString name="Imacron">
          -358 20 839 -43 callgsubr
          91 -885 -35 callgsubr
        </CharString>
        <CharString name="Iogonek">
          -358 134 -196 rmoveto
          11 7 0 1 8 hvcurveto
          71 callgsubr
          19 25 39 36 53 27 22 hvcurveto
          688 -48 -688 4 vlineto
          -36 -35 -26 -48 -40 vvcurveto
          -41 22 -32 59 vhcurveto
          endchar
        </CharString>
        <CharString name="Itilde">
          -358 307 -85 callsubr
          -196 -886 -35 callgsubr
        </CharString>
        <CharString name="J">
          -297 38 44 rmoveto
          -44 vlineto
          183 3 8 9 256 vvcurveto
          420 -48 -440 vlineto
          -196 -2 -5 -141 -3 vhcurveto
          endchar
        </CharString>
        <CharString name="Jcircumflex">
          -297 72 -84 callsubr
          -34 -709 -60 callsubr
        </CharString>
        <CharString name="K">
          37 572 hmoveto
          57 hlineto
          -270 350 267 338 rlineto
          -55 hlineto
          -251 -317 rlineto
          -161 317 -48 -688 48 327 161 hlineto
          endchar
        </CharString>
        <CharString name="Kcommaaccent">
          36 571 hmoveto
          57 hlineto
          -269 350 266 337 rlineto
          -55 hlineto
          -250 -316 rlineto
          -161 316 -48 -687 48 327 161 hlineto
          -30 -538 -84 callgsubr
        </CharString>
        <CharString name="L">
          -92 111 hmoveto
          391 45 -343 643 -48 hlineto
          endchar
        </CharString>
        <CharString name="Lacute">
          -93 111 748 -70 callgsubr
          -753 vmoveto
          -12 callgsubr
          endchar
        </CharString>
        <CharString name="Lcaron">
          -93 111 hmoveto
          -12 callgsubr
          211 -236 4 callgsubr
          endchar
        </CharString>
        <CharString name="Lcommaaccent">
          -93 111 hmoveto
          -12 callgsubr
          134 -898 -84 callgsubr
        </CharString>
        <CharString name="Ldot">
          -92 111 hmoveto
          -12 callgsubr
          266 -362 -79 callgsubr
        </CharString>
        <CharString name="Lslash">
          -92 159 45 rmoveto
          278 vlineto
          207 76 rlineto
          42 vlineto
          -207 -76 rlineto
          322 -48 -339 vlineto
          -68 -25 rlineto
          -43 vlineto
          68 25 rlineto
          -305 391 45 vlineto
          endchar
        </CharString>
        <CharString name="M">
          284 753 hmoveto
          47 688 -61 hlineto
          -281 -612 rlineto
          -5 hlineto
          -279 612 rlineto
          -63 -688 46 600 4 hlineto
          274 -600 rlineto
          40 hlineto
          274 600 rlineto
          4 hlineto
          endchar
        </CharString>
        <CharString name="N">
          108 578 hmoveto
          46 688 -46 -598 -4 hlineto
          -415 598 rlineto
          -48 -688 47 600 4 hlineto
          endchar
        </CharString>
        <CharString name="Nacute">
          107 344 748 -70 callgsubr
          233 -753 rmoveto
          -69 callsubr
          endchar
        </CharString>
        <CharString name="Nacute.loclPLK">
          107 344 748 -67 callsubr
          233 -753 rmoveto
          -69 callsubr
          endchar
        </CharString>
        <CharString name="Ncaron">
          107 341 -82 callgsubr
          342 -881 rmoveto
          -69 callsubr
          endchar
        </CharString>
        <CharString name="Ncommaaccent">
          107 577 hmoveto
          -69 callsubr
          163 -810 -84 callgsubr
        </CharString>
        <CharString name="Ntilde">
          108 545 860 rmoveto
          -32 hlineto
          -44 -4 -16 -30 -31 -34 -97 callgsubr
          -40 callgsubr
          32 -860 rmoveto
          -69 callsubr
          endchar
        </CharString>
        <CharString name="O">
          95 361 -8 rmoveto
          260 15 44 308 -28 callgsubr
          hvcurveto
          44 vmoveto
          -5 callsubr
          -302 72 callsubr
          hvcurveto
          endchar
        </CharString>
        <CharString name="OE">
          437 361 hmoveto
          647 44 -366 hlineto
          -30 -29 -2 -2 -14 hvcurveto
          59 41 7 82 1 163 rrcurveto
          325 44 -325 hlineto
          -1 157 -8 80 -58 41 rrcurveto
          -2 14 29 -2 30 hhcurveto
          366 44 -647 hlineto
          -259 -15 -42 -302 -302 15 -42 259 hvcurveto
          44 vmoveto
          -208 -19 6 294 294 19 6 208 209 18 -6 -294 -294 72 callsubr
          hvcurveto
          endchar
        </CharString>
        <CharString name="Oacute">
          95 334 749 -94 callgsubr
          27 -762 -105 callsubr
          endchar
        </CharString>
        <CharString name="Oacute.loclPLK">
          94 338 748 -67 callsubr
          23 -761 -105 callsubr
          endchar
        </CharString>
        <CharString name="Obreve">
          94 491 886 -83 callgsubr
          -130 -894 -105 callsubr
          endchar
        </CharString>
        <CharString name="Ocircumflex">
          95 228 749 -75 callsubr
          133 -762 -105 callsubr
          endchar
        </CharString>
        <CharString name="Odieresis">
          95 245 770 -80 callgsubr
          -66 -844 -105 callsubr
          endchar
        </CharString>
        <CharString name="Ograve">
          95 348 749 -74 callgsubr
          139 -891 -105 callsubr
          endchar
        </CharString>
        <CharString name="Ohorn">
          94 640 757 rmoveto
          -13 callsubr
          -54 hlineto
          6 -35 -44 2 -55 hhcurveto
          -51 callgsubr
          -58 callsubr
          259 15 44 308 181 -5 90 -58 43 hvcurveto
          55 5 13 24 70 vvcurveto
          -53 -413 rmoveto
          -22 callgsubr
          -208 -208 -19 6 302 301 19 6 208 208 18 -6 -301 vhcurveto
          endchar
        </CharString>
        <CharString name="Ohungarumlaut">
          94 248 -9 callgsubr
          -79 -762 -105 callsubr
          endchar
        </CharString>
        <CharString name="Omacron">
          94 247 839 -43 callgsubr
          114 -893 -105 callsubr
          endchar
        </CharString>
        <CharString name="Oslash">
          95 580 653 rmoveto
          56 90 rlineto
          -47 hlineto
          -43 -69 rlineto
          17 -41 -59 5 -85 hhcurveto
          -22 callsubr
          -308 -175 5 -90 51 -44 42 callsubr
          260 15 44 308 175 -5 89 -51 45 hvcurveto
          -446 -309 rmoveto
          302 19 6 208 76 51 -1 -15 33 vhcurveto
          -351 -560 rlineto
          -31 40 65 callsubr
          -50 1 15 -34 hvcurveto
          352 559 rlineto
          31 -39 4 -77 -151 vvcurveto
          -302 72 callsubr
          vhcurveto
          endchar
        </CharString>
        <CharString name="Oslashacute">
          94 499 881 -33 callgsubr
          206 -95 rmoveto
          56 89 rlineto
          -47 hlineto
          -43 -69 rlineto
          17 -41 -58 5 -85 hhcurveto
          -51 callgsubr
          -175 5 -89 51 -45 42 callsubr
          259 15 44 308 174 -5 90 -51 45 hvcurveto
          -445 -309 rmoveto
          301 19 6 208 75 51 -1 -15 34 vhcurveto
          -351 -558 rlineto
          -31 39 65 callsubr
          -51 1 15 -33 hvcurveto
          351 558 rlineto
          31 -39 4 -77 -150 vvcurveto
          -22 callgsubr
          -208 vhcurveto
          endchar
        </CharString>
        <CharString name="Otilde">
          95 535 860 rmoveto
          -32 hlineto
          -44 -4 -16 -30 -31 -34 -97 callgsubr
          -40 callgsubr
          -174 -868 -105 callsubr
          endchar
        </CharString>
        <CharString name="P">
          25 111 hmoveto
          48 269 243 hlineto
          177 12 98 111 113 -10 97 -179 hvcurveto
          -291 hlineto
          48 -375 rmoveto
          331 235 vlineto
          142 8 -61 -105 -104 -10 -61 -141 hvcurveto
          endchar
        </CharString>
        <CharString name="Q">
          95 551 16 rmoveto
          78 37 7 88 203 vvcurveto
          -28 callgsubr
          60 47 2 8 37 vhcurveto
          88 -117 rlineto
          56 2 hlineto
          -288 149 rmoveto
          -5 callsubr
          -192 -7 -73 -58 -27 hvcurveto
          -126 166 rlineto
          -55 hlineto
          134 -178 rlineto
          -4 -30 -37 0 -48 hhcurveto
          endchar
        </CharString>
        <CharString name="R">
          55 607 hmoveto
          -120 298 rlineto
          104 26 8 85 79 vvcurveto
          103 -9 97 -171 vhcurveto
          -308 -688 48 289 245 hlineto
          4 18 0 1 14 hvcurveto
          115 -290 rlineto
          -157 333 rmoveto
          -239 311 252 hlineto
          134 7 -62 -94 -93 -11 -62 -143 hvcurveto
          endchar
        </CharString>
        <CharString name="R.ss01">
          62 593 171 rmoveto
          -6 103 -35 27 -70 15 rrcurveto
          4 vlineto
          76 16 42 43 123 vvcurveto
          123 -40 63 -145 vhcurveto
          -304 -688 48 292 242 hlineto
          139 2 -71 -69 5 hvcurveto
          10 -152 rlineto
          47 hlineto
          -205 337 rmoveto
          -240 307 246 hlineto
          139 8 -61 -93 -91 -23 -62 -130 hvcurveto
          endchar
        </CharString>
        <CharString name="Racute">
          54 479 881 -33 callgsubr
          253 -748 rmoveto
          -89 callsubr
          endchar
        </CharString>
        <CharString name="Racute.ss01">
          61 482 881 -33 callgsubr
          236 -577 -92 callgsubr
          endchar
        </CharString>
        <CharString name="Rcaron">
          54 370 748 rmoveto
          105 133 -24 callsubr
          -104 -99 104 rlineto
          -34 -5 hlineto
          106 -16 callgsubr
          291 -748 rmoveto
          -89 callsubr
          endchar
        </CharString>
        <CharString name="Rcaron.ss01">
          61 373 748 rmoveto
          105 133 -24 callsubr
          -104 -99 104 rlineto
          -34 -5 hlineto
          106 -16 callgsubr
          274 -577 -92 callgsubr
          endchar
        </CharString>
        <CharString name="Rcommaaccent">
          54 606 hmoveto
          -89 callsubr
          -71 -468 22 callsubr
        </CharString>
        <CharString name="Rcommaaccent.ss01">
          61 592 171 -92 callgsubr
          -69 -472 22 callsubr
        </CharString>
        <CharString name="S">
          5 332 -8 rmoveto
          135 89 10 188 39 callgsubr
          hvcurveto
          -19 60 -52 7 -84 9 -172 18 rcurveline
          -84 9 -11 21 92 vvcurveto
          52 4 39 34 21 vhcurveto
          21 30 49 8 81 hhcurveto
          61 83 -5 -8 55 hvcurveto
          43 vlineto
          9 -44 -86 5 -75 hhcurveto
          -163 -77 -27 -157 -96 4 -61 128 -13 hvcurveto
          180 -19 rlineto
          117 -12 3 -12 -114 vvcurveto
          -55 -5 -50 -37 -20 vhcurveto
          -20 -38 -42 -4 -69 hhcurveto
          -57 -97 6 7 -67 hvcurveto
          -45 vlineto
          -7 64 97 -5 74 hhcurveto
          endchar
        </CharString>
        <CharString name="Sacute">
          4 293 748 -70 callgsubr
          39 -761 -99 callgsubr
          endchar
        </CharString>
        <CharString name="Sacute.loclPLK">
          4 293 748 -67 callsubr
          39 -761 -99 callgsubr
          endchar
        </CharString>
        <CharString name="Scaron">
          5 299 749 -52 callsubr
          139 -891 -99 callgsubr
          endchar
        </CharString>
        <CharString name="Scedilla">
          4 555 190 rmoveto
          39 callgsubr
          vhcurveto
          -19 60 -51 7 -84 9 -172 18 rcurveline
          -84 9 -11 21 91 vvcurveto
          52 4 39 34 21 vhcurveto
          21 30 49 8 81 hhcurveto
          61 83 -5 -8 54 hvcurveto
          43 vlineto
          9 -43 -86 5 -75 hhcurveto
          -163 -77 -27 -157 -95 4 -61 128 -13 hvcurveto
          180 -19 rlineto
          117 -12 2 -12 -114 vvcurveto
          -55 -4 -50 -37 -20 vhcurveto
          -20 -38 -42 -4 -69 hhcurveto
          -57 -97 6 7 -67 hvcurveto
          -45 vlineto
          55 -6 78 -4 68 -2 66 callsubr
          134 87 11 187 hvcurveto
          endchar
        </CharString>
        <CharString name="Scircumflex">
          4 184 -84 callsubr
          148 -761 -99 callgsubr
          endchar
        </CharString>
        <CharString name="Scommaaccent">
          4 332 -8 -99 callgsubr
          -58 -203 -84 callgsubr
        </CharString>
        <CharString name="T">
          -47 267 hmoveto
          47 643 229 45 -505 -45 229 hlineto
          endchar
        </CharString>
        <CharString name="Tbar">
          -47 542 642 rmoveto
          45 -504 -45 229 -265 -200 -41 200 -336 47 336 200 41 -200 265 vlineto
          endchar
        </CharString>
        <CharString name="Tcaron">
          -48 264 -82 callgsubr
          109 -881 rmoveto
          23 callsubr
          endchar
        </CharString>
        <CharString name="Thorn">
          25 111 hmoveto
          48 140 243 hlineto
          177 12 99 111 112 -10 98 -179 hvcurveto
          -243 128 -48 hlineto
          48 -503 rmoveto
          330 235 vlineto
          142 8 -60 -105 -104 -10 -61 -141 hvcurveto
          endchar
        </CharString>
        <CharString name="U">
          -6 callsubr
          234 20 61 243 vhcurveto
          392 vlineto
          endchar
        </CharString>
        <CharString name="Uacute">
          86 325 749 -94 callgsubr
          238 -67 -101 callsubr
          endchar
        </CharString>
        <CharString name="Ubreve">
          85 487 886 -83 callgsubr
          76 -199 -101 callsubr
          endchar
        </CharString>
        <CharString name="Ucircumflex">
          86 225 749 -75 callsubr
          338 -67 -101 callsubr
          endchar
        </CharString>
        <CharString name="Udieresis">
          86 241 770 -80 callgsubr
          140 -149 -101 callsubr
          endchar
        </CharString>
        <CharString name="Ugrave">
          86 369 749 -74 callgsubr
          320 -196 -101 callsubr
          endchar
        </CharString>
        <CharString name="Uhorn">
          85 683 784 rmoveto
          -59 callsubr
          -68 -422 hlineto
          -13 callgsubr
          -194 -196 -13 44 185 vhcurveto
          422 -47 -391 vlineto
          -243 21 -61 235 233 20 61 243 vhcurveto
          361 20 vlineto
          74 17 21 79 hvcurveto
          27 vlineto
          endchar
        </CharString>
        <CharString name="Uhungarumlaut">
          85 244 -9 callgsubr
          127 -67 -101 callsubr
          endchar
        </CharString>
        <CharString name="Umacron">
          85 243 839 -43 callgsubr
          320 -198 -101 callsubr
          endchar
        </CharString>
        <CharString name="Uogonek">
          -6 callsubr
          43 36 2 6 30 vhcurveto
          -40 -38 -25 -46 -39 vvcurveto
          -41 21 -32 60 9 6 0 1 11 vhcurveto
          58 callgsubr
          -35 -12 19 25 56 52 58 39 22 hvcurveto
          68 38 8 81 155 vvcurveto
          392 vlineto
          endchar
        </CharString>
        <CharString name="Uring">
          85 357 724 -21 callgsubr
          -69 -101 callsubr
          endchar
        </CharString>
        <CharString name="Utilde">
          85 530 -85 callsubr
          33 -199 -101 callsubr
          endchar
        </CharString>
        <CharString name="V">
          34 305 hmoveto
          52 hlineto
          268 688 rlineto
          -50 hlineto
          -241 -621 rlineto
          -5 hlineto
          -241 621 rlineto
          -51 hlineto
          endchar
        </CharString>
        <CharString name="W">
          356 688 hmoveto
          51 hlineto
          199 688 rlineto
          -48 hlineto
          -173 -611 rlineto
          -6 hlineto
          -193 611 rlineto
          -50 hlineto
          -192 -611 rlineto
          -6 hlineto
          -174 611 rlineto
          -51 hlineto
          200 -688 rlineto
          51 hlineto
          194 606 rlineto
          4 hlineto
          endchar
        </CharString>
        <CharString name="Wacute">
          355 468 748 -70 callgsubr
          219 -753 -70 callsubr
        </CharString>
        <CharString name="Wcircumflex">
          355 359 -84 callsubr
          328 -753 -70 callsubr
        </CharString>
        <CharString name="Wdieresis">
          355 375 6 callsubr
          182 -65 -32 callsubr
          130 -874 -70 callsubr
        </CharString>
        <CharString name="Wgrave">
          355 486 748 32 callgsubr
          327 -881 -70 callsubr
        </CharString>
        <CharString name="X">
          45 578 hmoveto
          58 hlineto
          -270 347 267 341 rlineto
          -57 hlineto
          -235 -300 rlineto
          -7 hlineto
          -234 300 rlineto
          -59 hlineto
          267 -342 -271 -346 rlineto
          57 hlineto
          238 303 rlineto
          8 hlineto
          endchar
        </CharString>
        <CharString name="Y">
          -27 276 hmoveto
          48 276 hlineto
          259 412 rlineto
          -53 hlineto
          -226 -361 rlineto
          -7 hlineto
          -225 361 rlineto
          -54 hlineto
          258 -412 rlineto
          endchar
        </CharString>
        <CharString name="Y.loclGUA">
          -29 507 688 rmoveto
          -215 vlineto
          -184 -12 -44 -195 -195 -13 44 184 vhcurveto
          215 -48 -184 vlineto
          -233 20 -65 212 -5 vhcurveto
          -201 48 201 vlineto
          211 5 20 65 233 vvcurveto
          184 vlineto
          endchar
        </CharString>
        <CharString name="Yacute">
          -27 280 749 -94 callgsubr
          -4 -754 rmoveto
          -78 callsubr
          endchar
        </CharString>
        <CharString name="Yacute.loclGUA">
          -30 436 881 -33 callgsubr
          196 -61 -92 callsubr
          endchar
        </CharString>
        <CharString name="Ycircumflex">
          -28 168 -84 callsubr
          108 -753 rmoveto
          -78 callsubr
          endchar
        </CharString>
        <CharString name="Ycircumflex.loclGUA">
          -30 299 852 rmoveto
          100 -104 rlineto
          33 5 hlineto
          -105 133 50 callsubr
          -16 callgsubr
          -5 34 vlineto
          306 -61 -92 callsubr
          endchar
        </CharString>
        <CharString name="Ydieresis">
          -27 186 770 -80 callgsubr
          -92 -836 rmoveto
          -78 callsubr
          endchar
        </CharString>
        <CharString name="Ydieresis.loclGUA">
          -30 233 874 rmoveto
          -51 -65 51 hlineto
          182 65 rmoveto
          -51 -65 51 hlineto
          91 -122 -92 callsubr
          endchar
        </CharString>
        <CharString name="Ygrave">
          -28 295 748 32 callgsubr
          107 -881 rmoveto
          -78 callsubr
          endchar
        </CharString>
        <CharString name="Ygrave.loclGUA">
          -30 328 748 3 callsubr
          213 -61 -92 callsubr
          endchar
        </CharString>
        <CharString name="Z">
          -27 58 hmoveto
          490 44 -429 hlineto
          421 602 rlineto
          42 -471 -44 411 vlineto
          -422 -602 rlineto
          endchar
        </CharString>
        <CharString name="Zacute">
          -28 277 748 -70 callgsubr
          -219 -753 rmoveto
          -60 callgsubr
          endchar
        </CharString>
        <CharString name="Zacute.loclPLK">
          -28 277 748 -67 callsubr
          -219 -753 rmoveto
          -60 callgsubr
          endchar
        </CharString>
        <CharString name="Zcaron">
          -27 279 748 -52 callsubr
          -115 -882 rmoveto
          -60 callgsubr
          endchar
        </CharString>
        <CharString name="Zdotaccent">
          -28 275 6 callsubr
          -217 -874 rmoveto
          -60 callgsubr
          endchar
        </CharString>
        <CharString name="a">
          -56 243 -8 rmoveto
          69 88 8 80 29 hvcurveto
          5 hlineto
          3 -80 rlineto
          38 328 hlineto
          151 -31 39 -168 -71 -65 -5 -7 -106 callgsubr
          endchar
        </CharString>
        <CharString name="aacute">
          -56 251 603 -94 callgsubr
          -8 -616 -107 callsubr
        </CharString>
        <CharString name="abreve">
          -57 415 742 rmoveto
          -35 hlineto
          -71 -2 -37 -93 -94 callsubr
          -172 -750 -107 callsubr
        </CharString>
        <CharString name="acircumflex">
          -56 156 -41 callsubr
          87 -616 -107 callsubr
        </CharString>
        <CharString name="acute">
          -427 20 604 38 callsubr
        </CharString>
        <CharString name="acute.case.loclPLK">
          -427 20 749 -67 callsubr
          endchar
        </CharString>
        <CharString name="acute.loclPLK">
          -427 20 604 -67 callsubr
          endchar
        </CharString>
        <CharString name="acutecomb">
          -181 603 38 callsubr
        </CharString>
        <CharString name="acutecomb.case">
          -181 748 38 callsubr
        </CharString>
        <CharString name="adieresis">
          -56 173 -44 callsubr
          -112 -738 -107 callsubr
        </CharString>
        <CharString name="ae">
          290 845 259 rmoveto
          198 -10 61 -185 -113 -54 -19 -49 -27 vhcurveto
          52 -22 -52 16 -106 hhcurveto
          -73 -64 -5 -7 -19 callsubr
          53 -22 124 hhcurveto
          63 15 callgsubr
          -164 -16 40 170 hvcurveto
          369 53 callsubr
          -324 vlineto
          169 17 27 154 vhcurveto
          -218 1 callsubr
        </CharString>
        <CharString name="aeacute">
          289 598 737 -25 callsubr
          372 -344 rmoveto
          198 -10 60 -185 -113 -53 -18 -49 -27 vhcurveto
          52 -22 -52 15 -106 hhcurveto
          -73 -64 -5 -6 -19 callsubr
          52 -22 124 hhcurveto
          63 15 callgsubr
          -163 -16 40 170 hvcurveto
          368 53 callsubr
          -323 vlineto
          169 17 27 153 vhcurveto
          -217 1 callsubr
        </CharString>
        <CharString name="agrave">
          -56 297 603 -74 callgsubr
          72 -745 -107 callsubr
        </CharString>
        <CharString name="amacron">
          -57 171 695 -43 callgsubr
          72 -749 -107 callsubr
        </CharString>
        <CharString name="ampersand">
          105 524 371 rmoveto
          -327 vlineto
          -8 -52 -59 -2 -50 hhcurveto
          -163 -79 19 127 89 15 58 155 hvcurveto
          110 44 -110 hlineto
          -155 -9 81 58 102 29 42 227 46 78 -7 -9 59 hvcurveto
          41 vlineto
          10 -57 -87 7 -60 hhcurveto
          -237 -44 -70 -111 -100 39 -43 80 -19 hvcurveto
          -4 vlineto
          -81 -19 -44 -34 -112 vvcurveto
          -122 36 -70 252 101 97 15 2 9 vhcurveto
          318 120 44 vlineto
          endchar
        </CharString>
        <CharString name="aogonek">
          -56 462 -158 rmoveto
          -35 -12 19 24 42 36 53 24 20 hvcurveto
          328 vlineto
          -26 callgsubr
          69 88 8 80 29 hvcurveto
          5 hlineto
          3 -77 rlineto
          -37 -36 -28 -48 -44 vvcurveto
          -38 22 -33 59 9 35 callsubr
          -8 -5 0 -4 hhcurveto
          -33 368 rmoveto
          -49 -6 -34 -17 -37 vhcurveto
          -52 -24 -66 -5 -67 hhcurveto
          -115 -26 19 88 93 23 14 96 hvcurveto
          202 hlineto
          endchar
        </CharString>
        <CharString name="approxequal">
          -132 75 295 rmoveto
          31 hlineto
          44 5 16 30 30 35 -11 -11 31 vhcurveto
          -13 41 -40 callgsubr
          -56 callgsubr
          -34 11 11 -31 vhcurveto
          13 -41 -40 14 -40 hhcurveto
          -55 -9 -28 -72 hvcurveto
          -190 vmoveto
          31 hlineto
          44 5 16 30 30 35 -11 -11 30 vhcurveto
          -13 42 -40 callgsubr
          -56 callgsubr
          -34 12 10 -31 vhcurveto
          14 -41 -40 13 -40 hhcurveto
          -55 -9 -28 -72 hvcurveto
          endchar
        </CharString>
        <CharString name="aring">
          -56 285 607 -71 callsubr
          -42 -647 -107 callsubr
        </CharString>
        <CharString name="aringacute">
          -57 266 836 -94 callgsubr
          19 -232 -19 callgsubr
          -42 -649 -107 callsubr
        </CharString>
        <CharString name="arrowboth">
          254 314 188 rmoveto
          -42 95 rlineto
          337 hlineto
          -40 -95 66 callgsubr
          -337 hlineto
          42 96 -259 -117 rlineto
          endchar
        </CharString>
        <CharString name="arrowdown">
          -233 198 -85 rmoveto
          116 259 -96 -41 rlineto
          555 -41 -555 vlineto
          -96 41 rlineto
          endchar
        </CharString>
        <CharString name="arrowdown.ss01">
          -283 173 171 rmoveto
          142 285 rlineto
          -285 hlineto
          endchar
        </CharString>
        <CharString name="arrowleft">
          254 263 283 rmoveto
          564 42 -564 hlineto
          42 96 -250 -117 250 -116 rlineto
          endchar
        </CharString>
        <CharString name="arrowleft.ss01">
          -265 315 201 rmoveto
          285 vlineto
          -285 -143 rlineto
          endchar
        </CharString>
        <CharString name="arrowright">
          254 569 188 rmoveto
          66 callgsubr
          -554 -42 554 hlineto
          endchar
        </CharString>
        <CharString name="arrowright.ss01">
          -265 48 201 rmoveto
          285 142 -285 143 rlineto
          endchar
        </CharString>
        <CharString name="arrowup">
          -233 177 -81 rmoveto
          41 553 hlineto
          96 -40 -116 259 -117 -259 96 40 rlineto
          endchar
        </CharString>
        <CharString name="arrowup.ss01">
          -283 30 231 rmoveto
          285 hlineto
          -142 285 rlineto
          endchar
        </CharString>
        <CharString name="arrowupdn">
          -10 callsubr
          endchar
        </CharString>
        <CharString name="arrowupdnbse">
          -10 callsubr
          -26 -342 rmoveto
          285 40 -285 hlineto
          endchar
        </CharString>
        <CharString name="asciicircum">
          -162 357 444 rmoveto
          44 hlineto
          -139 305 rlineto
          -58 hlineto
          -139 -305 rlineto
          44 hlineto
          124 273 rlineto
          endchar
        </CharString>
        <CharString name="asciitilde">
          -132 422 358 rmoveto
          -56 callgsubr
          -34 11 11 -32 vhcurveto
          13 -40 -40 14 -40 hhcurveto
          -55 -9 -28 -72 hvcurveto
          31 hlineto
          43 5 17 30 30 35 -12 -10 30 vhcurveto
          -14 42 39 -13 40 hhcurveto
          55 10 27 73 hvcurveto
          endchar
        </CharString>
        <CharString name="asterisk">
          -189 235 477 rmoveto
          132 -84 21 38 -138 73 138 74 -21 37 -133 -84 6 157 rlineto
          -42 hlineto
          6 -157 -133 84 -21 -37 138 -74 -138 -73 21 -38 133 84 -6 -156 rlineto
          42 hlineto
          endchar
        </CharString>
        <CharString name="asterisk.ss02">
          188 178 -14 rmoveto
          231 170 230 -170 -90 276 232 174 rlineto
          -287 hlineto
          -85 269 -87 -269 rlineto
          -287 hlineto
          234 -174 rlineto
          endchar
        </CharString>
        <CharString name="at">
          296 462 -108 rmoveto
          116 27 0 2 33 hvcurveto
          36 vlineto
          -2 -27 -65 -2 -84 hhcurveto
          -68 -54 3 3 -26 hvcurveto
          -182 18 -8 66 278 vvcurveto
          274 8 68 160 18 vhcurveto
          5 42 57 3 70 hhcurveto
          73 58 -3 -6 43 hvcurveto
          156 -18 8 -69 -272 vvcurveto
          -183 -24 -3 -52 vhcurveto
          -85 248 hlineto
          129 -26 33 -144 -57 -56 -4 -6 -40 vhcurveto
          -40 vlineto
          5 29 67 5 41 hhcurveto
          123 19 -9 -118 hvcurveto
          -34 vlineto
          2 -59 -93 2 -28 hhcurveto
          -102 -28 -32 -95 -103 48 -23 106 59 73 7 69 24 hvcurveto
          4 hlineto
          3 -69 rlineto
          110 hlineto
          92 33 8 211 350 -6 52 -368 -368 -6 -53 -349 -349 6 -53 368 hvcurveto
          -18 215 rmoveto
          -96 -20 15 73 78 18 11 78 hvcurveto
          170 -32 hlineto
          -114 -38 -31 -112 vhcurveto
          endchar
        </CharString>
        <CharString name="atilde">
          -56 459 742 rmoveto
          -32 hlineto
          -44 -4 -16 -30 -31 -34 -97 callgsubr
          -40 callgsubr
          -216 -750 -107 callsubr
        </CharString>
        <CharString name="b">
          -34 324 -8 rmoveto
          24 callgsubr
          -94 -58 -21 -59 -25 hvcurveto
          -4 305 -46 -743 38 hlineto
          3 80 rlineto
          5 hlineto
          -77 28 75 -11 78 hhcurveto
          -16 42 rmoveto
          -82 -50 22 51 -18 hvcurveto
          -15 42 0 46 60 vvcurveto
          61 1 47 15 42 vhcurveto
          48 18 48 22 83 hhcurveto
          146 21 -27 -193 -194 -21 -27 -146 hvcurveto
          endchar
        </CharString>
        <CharString name="backslash">
          -293 290 -55 rmoveto
          46 hlineto
          -290 798 rlineto
          -47 hlineto
          endchar
        </CharString>
        <CharString name="bar">
          -360 112 -161 rmoveto
          44 904 -44 hlineto
          endchar
        </CharString>
        <CharString name="bar.ss02">
          -130 -1 hmoveto
          500 696 -500 hlineto
          endchar
        </CharString>
        <CharString name="braceleft">
          -323 242 -150 rmoveto
          43 hlineto
          -53 33 -50 73 69 vvcurveto
          121 vlineto
          77 -24 54 -64 17 vhcurveto
          5 vlineto
          64 17 24 54 77 vvcurveto
          121 vlineto
          69 50 73 53 33 vhcurveto
          -43 hlineto
          -52 -27 -53 -76 -83 vvcurveto
          -115 vlineto
          -62 -24 -67 -84 vhcurveto
          -33 vlineto
          84 24 -68 -61 hvcurveto
          -115 vlineto
          -83 53 -76 52 -27 vhcurveto
          endchar
        </CharString>
        <CharString name="braceright">
          -323 20 -150 rmoveto
          43 hlineto
          52 27 53 76 83 vvcurveto
          115 vlineto
          61 24 68 84 vhcurveto
          33 vlineto
          -84 -24 67 62 hvcurveto
          115 vlineto
          83 -53 76 -52 27 vhcurveto
          -43 hlineto
          53 -33 51 -73 -69 vvcurveto
          -121 vlineto
          -77 24 -54 64 -17 vhcurveto
          -5 vlineto
          -64 -17 -24 -54 -77 vvcurveto
          -121 vlineto
          -69 -51 -73 -53 -33 vhcurveto
          endchar
        </CharString>
        <CharString name="bracketleft">
          -313 111 -150 rmoveto
          164 40 hlineto
          -119 4 rlineto
          805 vlineto
          119 4 rlineto
          40 -164 vlineto
          endchar
        </CharString>
        <CharString name="bracketleft.ss02">
          40 callgsubr
          hvcurveto
          -348 vlineto
          endchar
        </CharString>
        <CharString name="bracketright">
          -313 40 -150 rmoveto
          164 893 -164 -40 hlineto
          119 -4 rlineto
          -805 vlineto
          -119 -4 rlineto
          endchar
        </CharString>
        <CharString name="bracketright.ss02">
          -231 0 vmoveto
          352 348 hlineto
          205 -145 143 -207 vhcurveto
          endchar
        </CharString>
        <CharString name="breve">
          -327 281 743 -30 callsubr
        </CharString>
        <CharString name="brokenbar">
          -360 112 390 rmoveto
          44 353 -44 hlineto
          -904 vmoveto
          44 353 -44 hlineto
          endchar
        </CharString>
        <CharString name="bullet">
          -270 283 342 rmoveto
          92 -4 14 -102 -98 -4 -14 -92 -89 4 -14 98 102 4 14 89 vhcurveto
          endchar
        </CharString>
        <CharString name="bullet.ss02">
          154 392 421 rmoveto
          62 50 39 73 90 -76 73 -36 -37 -76 -73 -90 -73 50 -39 63 hvcurveto
          60 vmoveto
          -30 -23 18 34 57 36 46 17 17 35 -46 -57 -34 -23 -18 -29 hvcurveto
          -189 -250 rmoveto
          73 39 50 63 62 -39 50 -73 -90 -73 -76 -36 -37 73 -76 90 hvcurveto
          377 hmoveto
          89 73 76 37 36 -73 76 -89 -74 -38 -50 -62 -63 38 -50 74 hvcurveto
          -377 60 rmoveto
          -57 -46 36 17 17 46 35 57 34 18 -23 -29 -30 -18 -23 -34 hvcurveto
          377 hmoveto
          -35 -18 23 30 29 18 23 35 56 46 -35 -17 -17 -46 -36 -56 hvcurveto
          -188 -299 rmoveto
          36 76 73 90 73 -50 39 -62 -63 -50 -39 -73 -90 76 -73 37 hvcurveto
          60 vmoveto
          -17 -36 46 57 34 23 18 30 29 23 -18 -34 -57 -35 -46 -17 hvcurveto
          endchar
        </CharString>
        <CharString name="c">
          -170 407 4 rmoveto
          -15 callsubr
          -143 -22 35 187 180 22 40 140 37 50 -4 -7 35 hvcurveto
          41 vlineto
          7 -33 -54 5 -45 hhcurveto
          -163 -35 -58 -206 -189 17 -73 186 25 callgsubr
          endchar
        </CharString>
        <CharString name="cacute">
          -170 207 603 -94 callgsubr
          200 -604 -81 callgsubr
        </CharString>
        <CharString name="cacute.loclPLK">
          -170 207 603 -67 callsubr
          200 -604 -81 callgsubr
        </CharString>
        <CharString name="caron">
          -321 126 604 -52 callsubr
          endchar
        </CharString>
        <CharString name="caron.loclCSY">
          -450 52 451 rmoveto
          31 hlineto
          30 151 rlineto
          86 -48 -86 vlineto
          endchar
        </CharString>
        <CharString name="ccaron">
          -170 202 603 -72 callsubr
          311 -733 -81 callgsubr
        </CharString>
        <CharString name="ccedilla">
          -170 283 34 rmoveto
          -143 -22 35 187 180 22 40 140 37 50 -4 -7 35 hvcurveto
          41 vlineto
          6 -33 -54 5 -45 hhcurveto
          -163 -35 -57 -206 -165 13 -76 126 -17 hvcurveto
          -56 -181 rlineto
          -5 50 vlineto
          41 183 rlineto
          -1 9 10 0 10 hhcurveto
          25 callgsubr
          -15 callsubr
          endchar
        </CharString>
        <CharString name="ccircumflex">
          -170 96 603 -89 callgsubr
          311 -604 -81 callgsubr
        </CharString>
        <CharString name="cdotaccent">
          -170 203 15 callsubr
          204 -726 -81 callgsubr
        </CharString>
        <CharString name="cedilla">
          -495 20 35 callgsubr
        </CharString>
        <CharString name="cent">
          -161 412 125 rmoveto
          -28 -7 -48 -6 -39 -1 rrcurveto
          464 vlineto
          40 44 -5 -7 26 hvcurveto
          43 vlineto
          -32 7 -40 4 -38 2 rrcurveto
          77 -41 -77 vlineto
          -137 -4 -46 -51 -222 vvcurveto
          -205 27 -62 156 -6 vhcurveto
          -77 41 76 vlineto
          46 1 43 5 26 6 rrcurveto
          -291 264 rmoveto
          185 24 39 111 6 vhcurveto
          -462 vlineto
          -113 6 -22 39 187 vvcurveto
          endchar
        </CharString>
        <CharString name="circumflex">
          -321 20 604 -75 callsubr
          endchar
        </CharString>
        <CharString name="colon">
          -441 64 437 rmoveto
          59 73 -59 hlineto
          -510 vmoveto
          59 73 -59 hlineto
          endchar
        </CharString>
        <CharString name="comma">
          -441 36 -80 23 callgsubr
        </CharString>
        <CharString name="copyright">
          97 362 -8 rmoveto
          61 callgsubr
          63 callgsubr
          hvcurveto
          30 7 callsubr
          23 132 rmoveto
          30 36 2 3 22 hvcurveto
          34 vlineto
          -3 -20 -34 -2 -28 hhcurveto
          -105 -11 13 143 142 11 13 105 26 33 -2 -3 21 hvcurveto
          33 vlineto
          4 -16 -37 3 -33 hhcurveto
          -126 -20 -24 -166 -168 20 -22 126 hvcurveto
          endchar
        </CharString>
        <CharString name="currency">
          123 100 -15 rmoveto
          115 114 rlineto
          -23 31 50 -7 79 hhcurveto
          79 50 7 22 32 hvcurveto
          114 -114 29 29 -115 114 rlineto
          25 42 3 67 107 vvcurveto
          107 -3 68 -25 42 vhcurveto
          114 113 -28 28 -114 -113 rlineto
          24 -31 -50 7 -80 hhcurveto
          -79 -50 -7 -23 -32 hvcurveto
          -113 112 -29 -29 114 -113 rlineto
          -25 -41 -3 -68 -107 vvcurveto
          -108 3 -67 26 -41 vhcurveto
          -115 -114 rlineto
          303 98 rmoveto
          -171 0 34 198 198 0 36 171 171 0 -36 -198 -198 0 -34 -171 hvcurveto
          endchar
        </CharString>
        <CharString name="d">
          -34 270 -8 rmoveto
          -31 callgsubr
          743 -46 -305 -4 hlineto
          59 -25 -58 21 -94 hhcurveto
          -165 -33 -51 -212 -212 34 -51 164 hvcurveto
          15 42 rmoveto
          -62 callsubr
          47 callsubr
          endchar
        </CharString>
        <CharString name="dagger">
          -208 194 hmoveto
          32 hlineto
          6 462 2 callsubr
          endchar
        </CharString>
        <CharString name="daggerdbl">
          -208 194 hmoveto
          32 hlineto
          6 182 136 7 rlineto
          31 vlineto
          -136 6 rlineto
          236 vlineto
          2 callsubr
          -236 vlineto
          -137 -6 rlineto
          -31 vlineto
          137 -7 rlineto
          endchar
        </CharString>
        <CharString name="dcaron">
          -35 -52 callgsubr
          279 459 4 callgsubr
          -277 -567 rmoveto
          -62 callsubr
          47 callsubr
          endchar
        </CharString>
        <CharString name="dcroat">
          -34 566 688 rmoveto
          -69 54 -46 -54 -147 -41 147 -209 -4 hlineto
          59 -25 -58 20 -94 hhcurveto
          -165 -33 -50 -212 -212 34 -51 164 -31 callgsubr
          647 69 hlineto
          -130 -541 rmoveto
          47 callsubr
          -62 callsubr
          endchar
        </CharString>
        <CharString name="degree">
          -242 193 397 rmoveto
          117 7 28 121 60 callsubr
          -121 9 -28 116 hvcurveto
          35 vmoveto
          -85 0 18 96 96 0 19 85 85 0 -19 -96 -96 0 -18 -85 hvcurveto
          endchar
        </CharString>
        <CharString name="dialog">
          176 306 -212 rmoveto
          212 212 rlineto
          227 688 -686 -688 247 60 -187 568 566 -568 -191 hlineto
          -188 -187 rlineto
          endchar
        </CharString>
        <CharString name="dieresis">
          -355 20 665 46 callgsubr
        </CharString>
        <CharString name="divide">
          -89 244 410 -32 callsubr
          -174 -243 rmoveto
          48 callsubr
          174 -243 rmoveto
          51 66 -51 hlineto
          endchar
        </CharString>
        <CharString name="dollar">
          -92 459 218 rmoveto
          111 -20 25 -83 8 vhcurveto
          -65 7 rlineto
          207 vlineto
          45 -2 51 -4 44 -7 rrcurveto
          43 vlineto
          -39 7 -51 5 -50 1 rrcurveto
          77 -41 -77 vlineto
          -111 -3 -62 -22 -127 vvcurveto
          -92 23 -33 90 -9 vhcurveto
          60 -6 rlineto
          -216 vlineto
          -63 1 -36 3 -58 7 rrcurveto
          -42 vlineto
          41 -6 58 -4 58 -2 rrcurveto
          -76 41 76 vlineto
          121 3 47 28 119 vvcurveto
          -262 160 rmoveto
          -58 6 -15 9 80 vvcurveto
          95 51 7 75 1 vhcurveto
          -203 vlineto
          41 -262 rmoveto
          212 vlineto
          52 -5 rlineto
          51 -6 18 -4 -91 vvcurveto
          -80 -19 -25 -102 -1 vhcurveto
          endchar
        </CharString>
        <CharString name="dotaccent">
          -537 20 665 rmoveto
          51 66 -51 hlineto
          endchar
        </CharString>
        <CharString name="dotbelowcomb">
          -123 -135 -79 callgsubr
        </CharString>
        <CharString name="dotlessi">
          -389 97 hmoveto
          46 510 -46 hlineto
          endchar
        </CharString>
        <CharString name="e">
          -67 488 256 rmoveto
          200 -10 62 -185 -211 -10 -67 -103 callsubr
          endchar
        </CharString>
        <CharString name="eacute">
          -67 415 737 -25 callsubr
          199 -347 -105 callgsubr
          endchar
        </CharString>
        <CharString name="ebreve">
          -68 279 600 rmoveto
          127 3 59 83 hvcurveto
          -35 0 callgsubr
          vhcurveto
          209 -344 -105 callgsubr
          endchar
        </CharString>
        <CharString name="ecaron">
          -68 308 603 rmoveto
          105 134 -24 callsubr
          -105 -99 105 rlineto
          -34 -5 hlineto
          106 -63 callgsubr
          235 -347 -105 callgsubr
          endchar
        </CharString>
        <CharString name="ecircumflex">
          -67 281 708 rmoveto
          -74 callsubr
          -5 34 vlineto
          306 -347 -105 callgsubr
          endchar
        </CharString>
        <CharString name="edieresis">
          -67 215 43 callsubr
          91 -408 -105 callgsubr
          endchar
        </CharString>
        <CharString name="edotaccent">
          -68 305 730 rmoveto
          -51 -66 51 hlineto
          183 -408 -105 callgsubr
          endchar
        </CharString>
        <CharString name="egrave">
          -67 317 37 callsubr
          206 -347 -105 callgsubr
          endchar
        </CharString>
        <CharString name="eight">
          53 341 -38 callsubr
          -41 30 110 111 36 21 callgsubr
          -50 24 120 125 40 21 171 169 41 63 callsubr
        </CharString>
        <CharString name="eight.dnom">
          -230 198 -4 -97 callsubr
        </CharString>
        <CharString name="eight.numr">
          -230 198 304 -97 callsubr
        </CharString>
        <CharString name="eight.tnum">
          31 330 -38 callsubr
          -40 30 110 111 35 21 callgsubr
          -49 24 120 125 39 21 171 170 40 63 callsubr
        </CharString>
        <CharString name="ellipsis">
          -67 64 hmoveto
          59 73 -59 hlineto
          187 -73 rmoveto
          59 73 -59 hlineto
          187 -73 -79 callgsubr
        </CharString>
        <CharString name="emacron">
          -68 393 741 68 callsubr
          95 -439 -105 callgsubr
          endchar
        </CharString>
        <CharString name="emdash">
          243 63 283 rmoveto
          745 42 -745 hlineto
          endchar
        </CharString>
        <CharString name="endash">
          -158 63 283 rmoveto
          344 42 -344 hlineto
          endchar
        </CharString>
        <CharString name="eng">
          -26 322 518 rmoveto
          -123 -39 -41 -47 -17 hvcurveto
          9 callgsubr
          -414 vlineto
          -44 -8 -12 -92 vhcurveto
          -39 vlineto
          102 44 6 101 hvcurveto
          413 vlineto
          64 callgsubr
          vhcurveto
          endchar
        </CharString>
        <CharString name="eogonek">
          11 callsubr
          41 47 2 4 38 vhcurveto
          -36 -37 -25 -44 -42 vvcurveto
          -38 21 -33 67 callgsubr
          -4 0 -5 hhcurveto
          -35 -12 20 23 42 41 55 29 23 hvcurveto
          -101 callgsubr
          endchar
        </CharString>
        <CharString name="equal">
          -89 70 333 rmoveto
          399 40 -399 hlineto
          -241 vmoveto
          28 callsubr
        </CharString>
        <CharString name="estimated">
          95 134 323 rmoveto
          502 21 hlineto
          -28 callgsubr
          213 47 27 181 11 vhcurveto
          -36 hlineto
          -168 -11 -44 -6 -177 hhcurveto
          -206 -23 6 291 -1 hvcurveto
          227 339 rmoveto
          206 20 -6 -299 1 hvcurveto
          -454 hlineto
          299 1 21 6 205 hhcurveto
          endchar
        </CharString>
        <CharString name="eth">
          65 callgsubr
          31 -2 53 -8 55 hvcurveto
          -13 87 -40 86 -38 56 77 13 rcurveline
          38 vlineto
          -102 -18 -30 37 -27 20 -10 8 rlinecurve
          -54 -4 hlineto
          12 -10 30 -23 31 -36 -94 -16 rcurveline
          -38 vlineto
          121 20 28 -38 27 -50 20 -61 rlinecurve
          -5 -3 rlineto
          22 -32 -46 12 -66 hhcurveto
          -200 -17 callgsubr
        </CharString>
        <CharString name="exclam">
          -418 87 179 rmoveto
          37 hlineto
          2 126 5 167 81 vvcurveto
          135 -51 -135 vlineto
          -81 5 -167 2 -126 vhcurveto
          -11 -179 -79 callgsubr
        </CharString>
        <CharString name="exclam.case">
          -418 87 179 rmoveto
          -23 callgsubr
          -11 -179 -79 callgsubr
        </CharString>
        <CharString name="exclam.ss02">
          165 397 -8 rmoveto
          193 158 158 194 194 -158 158 -193 -194 -158 -158 -194 -194 158 -158 194 hvcurveto
          45 vmoveto
          -169 -138 138 169 169 138 138 169 168 138 -138 -169 -169 -138 -138 -168 hvcurveto
          -20 231 rmoveto
          40 hlineto
          7 47 7 89 76 vvcurveto
          99 -68 -99 vlineto
          -76 7 -89 7 -47 vhcurveto
          -14 -159 rmoveto
          68 82 -68 hlineto
          endchar
        </CharString>
        <CharString name="exclamdbl">
          -226 87 179 rmoveto
          -23 callgsubr
          192 hmoveto
          -23 callgsubr
          -203 -179 rmoveto
          59 73 -59 hlineto
          192 -73 -79 callgsubr
        </CharString>
        <CharString name="exclamdown">
          -420 75 437 rmoveto
          59 73 -59 hlineto
          3 -688 10 callsubr
        </CharString>
        <CharString name="exclamdown.case">
          -418 75 615 rmoveto
          59 72 -59 hlineto
          3 -687 10 callsubr
        </CharString>
        <CharString name="f">
          -278 136 hmoveto
          46 468 135 42 -135 114 hlineto
          66 28 14 107 vhcurveto
          39 vlineto
          -122 -59 -11 -116 hvcurveto
          -106 -107 -42 107 vlineto
          endchar
        </CharString>
        <CharString name="f_f">
          71 136 hmoveto
          -56 callsubr
          350 -468 rmoveto
          -56 callsubr
          endchar
        </CharString>
        <CharString name="fi">
          -40 136 hmoveto
          -56 callsubr
          307 206 26 callgsubr
          4 -742 -38 callgsubr
        </CharString>
        <CharString name="five">
          -12 88 48 rmoveto
          57 callgsubr
          208 47 54 160 129 -26 63 -206 -60 -63 -4 -7 -42 hvcurveto
          256 346 45 -392 -349 vlineto
          9 69 66 6 33 hhcurveto
          189 37 -20 -135 -124 -35 67 callsubr
        </CharString>
        <CharString name="five.dnom">
          -265 50 39 -34 callsubr
        </CharString>
        <CharString name="five.numr">
          -265 50 347 -34 callsubr
        </CharString>
        <CharString name="five.tnum">
          31 108 48 rmoveto
          -41 vlineto
          -9 55 83 -6 59 hhcurveto
          207 47 54 160 129 -25 63 -207 -60 -62 -5 -6 -42 hvcurveto
          256 345 45 -392 -349 vlineto
          9 69 67 6 33 hhcurveto
          188 38 -20 -135 -124 -36 67 callsubr
        </CharString>
        <CharString name="fiveeighths">
          266 182 hmoveto
          47 hlineto
          449 687 rlineto
          -48 hlineto
          -580 -340 rmoveto
          -35 vlineto
          -5 34 50 -3 34 hhcurveto
          122 28 33 86 70 -16 38 -116 -33 -35 -2 -4 -24 hvcurveto
          121 195 37 -235 -196 vlineto
          4 38 39 3 22 hhcurveto
          101 22 -10 -66 -60 -20 -17 -94 -27 -47 3 3 -38 hvcurveto
          645 -351 -97 callsubr
        </CharString>
        <CharString name="fl">
          -40 136 hmoveto
          -56 callsubr
          311 -468 rmoveto
          59 callgsubr
          endchar
        </CharString>
        <CharString name="florin">
          -297 350 704 rmoveto
          8 39 rlineto
          -125 -55 -5 -220 -49 hvcurveto
          -1 -8 rlineto
          -107 hlineto
          -9 -42 rlineto
          107 hlineto
          -111 -526 rlineto
          -79 -18 -31 -15 -105 hhcurveto
          -9 -38 rlineto
          123 58 4 196 41 hvcurveto
          98 458 rlineto
          135 hlineto
          8 42 rlineto
          -134 hlineto
          3 16 rlineto
          163 35 27 15 111 hhcurveto
          endchar
        </CharString>
        <CharString name="four">
          10 431 hmoveto
          47 172 107 44 -107 286 -42 hlineto
          -5 -286 rlineto
          -324 hlineto
          275 472 rlineto
          -55 hlineto
          -275 -476 rlineto
          -40 379 vlineto
          endchar
        </CharString>
        <CharString name="four.dnom">
          -256 244 hmoveto
          -5 callgsubr
        </CharString>
        <CharString name="four.numr">
          -256 244 308 rmoveto
          -5 callgsubr
        </CharString>
        <CharString name="four.ss01">
          10 478 217 rmoveto
          471 -56 vlineto
          -370 -475 rlineto
          -41 379 -172 47 172 107 45 vlineto
          -477 hmoveto
          323 410 rlineto
          -410 vlineto
          endchar
        </CharString>
        <CharString name="four.tnum">
          31 441 hmoveto
          48 172 107 44 -107 286 -43 hlineto
          -4 -286 rlineto
          -325 hlineto
          275 472 rlineto
          -54 hlineto
          -276 -476 rlineto
          -40 379 vlineto
          endchar
        </CharString>
        <CharString name="fraction">
          -494 -181 hmoveto
          -12 callsubr
          -48 hlineto
          endchar
        </CharString>
        <CharString name="g">
          -34 278 -206 rmoveto
          192 27 70 206 hvcurveto
          440 -38 vlineto
          -4 -80 rlineto
          -4 hlineto
          77 -28 -76 11 -77 hhcurveto
          -164 -34 -51 -212 -212 33 -50 165 94 59 21 58 24 hvcurveto
          4 -15 hlineto
          -175 -19 -46 -162 -51 -71 2 5 -55 vhcurveto
          -41 vlineto
          -5 44 77 -3 64 hhcurveto
          7 241 rmoveto
          -145 -22 27 193 193 22 28 145 83 50 -22 -59 21 hvcurveto
          12 -35 0 -46 -59 vvcurveto
          -61 -1 -46 -14 -39 vhcurveto
          -52 -19 -48 64 callsubr
        </CharString>
        <CharString name="g_tilde.loclGUA">
          -35 469 742 rmoveto
          -32 hlineto
          -44 -4 -16 -30 -31 -33 -97 callgsubr
          38 -64 callgsubr
          -191 -948 -100 callgsubr
        </CharString>
        <CharString name="gbreve">
          -35 426 742 rmoveto
          -35 hlineto
          -71 -2 -37 -93 -94 callsubr
          -148 -948 -100 callgsubr
        </CharString>
        <CharString name="gcaron">
          -35 270 603 -72 callsubr
          114 -943 -100 callgsubr
        </CharString>
        <CharString name="gcircumflex">
          -35 164 603 -89 callgsubr
          114 -814 -100 callgsubr
        </CharString>
        <CharString name="gcommaaccent">
          -35 354 754 30 callsubr
          -76 -960 -100 callgsubr
        </CharString>
        <CharString name="gdotaccent">
          -35 271 15 callsubr
          7 -936 -100 callgsubr
        </CharString>
        <CharString name="germandbls">
          -17 340 hmoveto
          170 28 61 182 131 -43 51 -81 13 hvcurveto
          4 vlineto
          79 13 36 41 80 vvcurveto
          116 -43 58 -164 -172 -53 -70 -150 vhcurveto
          -530 45 524 vlineto
          155 54 29 118 134 35 -33 -97 -87 -43 -33 -113 vhcurveto
          -39 -42 39 hlineto
          127 38 -38 -143 -178 -19 -16 -153 hvcurveto
          -69 -41 hlineto
          endchar
        </CharString>
        <CharString name="grave">
          -427 146 604 56 callsubr
        </CharString>
        <CharString name="gravecomb">
          -55 603 56 callsubr
        </CharString>
        <CharString name="gravecomb.case">
          -55 748 56 callsubr
        </CharString>
        <CharString name="greater">
          -88 70 45 56 callgsubr
          -46 vlineto
          366 -162 -366 -163 rlineto
          endchar
        </CharString>
        <CharString name="greaterequal">
          -88 70 174 56 callgsubr
          -45 vlineto
          366 -163 -366 -163 rlineto
          -219 vmoveto
          28 callsubr
        </CharString>
        <CharString name="guillemotleft">
          -169 189 99 rmoveto
          37 70 callsubr
          -37 hlineto
          -132 -206 rlineto
          287 -205 rmoveto
          37 hlineto
          -117 205 117 206 rlineto
          -37 hlineto
          -132 -206 rlineto
          endchar
        </CharString>
        <CharString name="guillemotright">
          -169 18 callsubr
          38 -205 rmoveto
          37 hlineto
          132 205 -132 206 rlineto
          -37 hlineto
          117 -206 rlineto
          endchar
        </CharString>
        <CharString name="guilsinglleft">
          -325 188 99 rmoveto
          38 70 callsubr
          -38 hlineto
          -131 -206 rlineto
          endchar
        </CharString>
        <CharString name="guilsinglright">
          -325 18 callsubr
          endchar
        </CharString>
        <CharString name="h">
          -26 459 hmoveto
          -24 callgsubr
          56 -159 -122 -38 -43 -38 -15 vhcurveto
          -4 306 -46 -743 46 264 hlineto
          120 1 91 164 128 23 -21 -145 vhcurveto
          endchar
        </CharString>
        <CharString name="hbar">
          -26 322 517 rmoveto
          -122 -38 -42 -38 -15 hvcurveto
          -4 210 147 41 -147 54 -46 -54 -69 -41 69 -647 46 264 hlineto
          120 1 91 164 128 23 -21 -145 vhcurveto
          -309 46 320 vlineto
          142 -24 55 -159 vhcurveto
          endchar
        </CharString>
        <CharString name="hcircumflex">
          -27 -13 781 -89 callgsubr
          472 -786 rmoveto
          -18 callsubr
          endchar
        </CharString>
        <CharString name="hookabovecomb">
          -189 606 -98 callgsubr
          endchar
        </CharString>
        <CharString name="hookabovecomb.case">
          -189 729 -96 callsubr
          endchar
        </CharString>
        <CharString name="house">
          114 59 hmoveto
          624 hlineto
          1 407 -290 287 rlineto
          -46 hlineto
          -289 -287 rlineto
          42 -368 rmoveto
          354 vlineto
          271 268 269 -268 rlineto
          -354 vlineto
          endchar
        </CharString>
        <CharString name="hungarumlaut">
          -238 20 605 -49 callgsubr
          125 132 rlineto
          5 -53 vlineto
          -105 -132 rlineto
          endchar
        </CharString>
        <CharString name="hyphen">
          -272 64 263 -3 callsubr
        </CharString>
        <CharString name="i">
          -389 93 675 26 callgsubr
          4 -743 rmoveto
          46 510 -46 hlineto
          endchar
        </CharString>
        <CharString name="i.loclTRK">
          -389 94 15 callsubr
          3 -730 -38 callgsubr
        </CharString>
        <CharString name="iacute">
          -389 94 603 -94 callgsubr
          3 -608 -38 callgsubr
        </CharString>
        <CharString name="iacute_j.loclNLD">
          -150 98 603 -94 callgsubr
          239 -5 -94 callgsubr
          -240 -608 -35 callsubr
          138 -709 -59 callgsubr
        </CharString>
        <CharString name="ibreve">
          -389 249 742 rmoveto
          -35 hlineto
          -71 -2 -37 -93 -94 callsubr
          -152 -742 -38 callgsubr
        </CharString>
        <CharString name="icircumflex">
          -389 -13 -41 callsubr
          110 -608 -38 callgsubr
        </CharString>
        <CharString name="idieresis">
          -389 3 -44 callsubr
          -88 -730 -38 callgsubr
        </CharString>
        <CharString name="igrave">
          -389 111 603 -74 callgsubr
          112 -737 -38 callgsubr
        </CharString>
        <CharString name="ij">
          -150 93 47 callgsubr
          239 -68 26 callgsubr
          -235 -742 -35 callsubr
          138 -709 -59 callgsubr
        </CharString>
        <CharString name="imacron">
          -389 5 695 -43 callgsubr
          92 -741 -38 callgsubr
        </CharString>
        <CharString name="infinity">
          408 284 55 rmoveto
          142 54 66 78 38 hvcurveto
          -78 38 55 -66 143 hhcurveto
          178 35 72 129 128 -35 73 -178 -143 -55 -68 -76 -38 hvcurveto
          76 -38 -54 68 -142 hhcurveto
          -178 -38 -73 -128 -129 38 -72 178 hvcurveto
          40 vmoveto
          -147 -26 59 102 102 26 59 147 135 49 -78 -83 28 hvcurveto
          -83 -28 -49 -78 -135 hhcurveto
          470 hmoveto
          -136 -49 78 83 -27 hvcurveto
          83 27 49 78 136 hhcurveto
          145 26 -59 -102 -102 -26 -59 -145 hvcurveto
          endchar
        </CharString>
        <CharString name="integral">
          -246 74 -190 rmoveto
          95 56 6 90 5 0 6 -3 62 hvcurveto
          -36 575 rlineto
          -1 19 -1 20 9 vvcurveto
          44 24 12 82 vhcurveto
          38 vlineto
          -95 -57 -7 -89 -13 0 -9 1 -20 hvcurveto
          36 -580 rlineto
          4 -65 0 -5 -4 vvcurveto
          -44 -23 -12 -82 vhcurveto
          endchar
        </CharString>
        <CharString name="iogonek">
          -389 94 731 rmoveto
          -66 51 66 vlineto
          -65 -845 rmoveto
          39 36 53 27 22 vhcurveto
          510 -46 -510 2 vlineto
          -36 -35 -26 -48 -40 vvcurveto
          -41 21 -32 59 10 35 callsubr
          -9 -4 0 -5 hhcurveto
          -35 -11 19 25 hvcurveto
          endchar
        </CharString>
        <CharString name="itilde">
          -389 292 742 rmoveto
          -32 hlineto
          -44 -4 -16 -30 -31 -33 -97 callgsubr
          38 -64 callgsubr
          -195 -742 -38 callgsubr
        </CharString>
        <CharString name="j">
          -389 93 675 26 callgsubr
          -97 -943 31 callsubr
        </CharString>
        <CharString name="jcircumflex">
          -389 -13 603 -89 callgsubr
          9 -808 -59 callgsubr
        </CharString>
        <CharString name="k">
          13 callgsubr
          462 -46 -743 46 238 80 hlineto
          endchar
        </CharString>
        <CharString name="kcommaaccent">
          -106 428 hmoveto
          58 hlineto
          -226 262 223 247 rlineto
          -55 hlineto
          -205 -228 rlineto
          -80 461 -46 -742 46 238 80 hlineto
          -4 -449 -84 callgsubr
        </CharString>
        <CharString name="kgreenlandic">
          13 callgsubr
          229 -46 -510 46 238 80 hlineto
          endchar
        </CharString>
        <CharString name="l">
          -389 97 hmoveto
          46 743 -46 hlineto
          endchar
        </CharString>
        <CharString name="lacute">
          -389 98 781 -94 callgsubr
          -1 -786 rmoveto
          59 callgsubr
          endchar
        </CharString>
        <CharString name="lcaron">
          -389 97 hmoveto
          59 callgsubr
          100 -291 4 callgsubr
          endchar
        </CharString>
        <CharString name="lcommaaccent">
          -389 97 hmoveto
          59 callgsubr
          -20 -953 -84 callgsubr
        </CharString>
        <CharString name="ldot">
          -382 97 hmoveto
          59 callgsubr
          117 -479 -79 callgsubr
        </CharString>
        <CharString name="leftOpenDialog">
          -4 624 627 rmoveto
          60 -624 -687 624 60 -564 567 vlineto
          endchar
        </CharString>
        <CharString name="less">
          -88 470 45 rmoveto
          45 vlineto
          -366 163 366 162 rlineto
          46 vlineto
          -399 -179 rlineto
          -59 vlineto
          endchar
        </CharString>
        <CharString name="lessequal">
          -88 470 174 rmoveto
          45 vlineto
          -366 163 366 163 rlineto
          45 vlineto
          -399 -179 rlineto
          -59 vlineto
          -352 vmoveto
          28 callsubr
        </CharString>
        <CharString name="logicalnot">
          -90 427 53 rmoveto
          41 223 -398 -43 357 hlineto
          endchar
        </CharString>
        <CharString name="longs">
          -315 136 hmoveto
          46 624 hlineto
          66 28 14 107 vhcurveto
          39 vlineto
          -122 -59 -11 -116 hvcurveto
          -106 -107 -42 107 vlineto
          endchar
        </CharString>
        <CharString name="lozenge">
          -89 241 hmoveto
          58 hlineto
          180 344 -180 345 rlineto
          -58 hlineto
          -181 -345 rlineto
          210 -312 rmoveto
          -166 312 166 313 165 -313 rlineto
          endchar
        </CharString>
        <CharString name="lslash">
          -388 97 hmoveto
          46 354 hlineto
          67 24 rlineto
          44 vlineto
          -67 -25 rlineto
          346 -46 -363 vlineto
          -64 -23 rlineto
          -43 vlineto
          64 22 rlineto
          endchar
        </CharString>
        <CharString name="m">
          261 747 hmoveto
          -4 callsubr
          -23 56 -142 -110 -39 -41 -47 -15 vhcurveto
          -6 hlineto
          62 -16 -41 26 -98 hhcurveto
          -109 -36 -41 -47 -15 hvcurveto
          -5 hlineto
          -3 80 rlineto
          -38 -510 46 264 hlineto
          120 1 91 146 113 19 -21 -145 vhcurveto
          -309 46 264 vlineto
          130 1 81 146 113 19 -21 -145 vhcurveto
          endchar
        </CharString>
        <CharString name="macron">
          -272 64 696 -3 callsubr
        </CharString>
        <CharString name="minus">
          -89 70 232 rmoveto
          28 callsubr
        </CharString>
        <CharString name="minute">
          -450 55 391 rmoveto
          30 hlineto
          28 151 10 146 rlineto
          -48 hlineto
          endchar
        </CharString>
        <CharString name="multiply">
          -158 235 224 rmoveto
          137 -138 29 30 -138 137 138 137 -28 28 -138 -137 -137 137 -28 -29 137 -137 -137 -136 28 -29 rlineto
          endchar
        </CharString>
        <CharString name="n">
          -26 459 hmoveto
          -24 callgsubr
          56 -159 -123 -39 -41 -47 -17 vhcurveto
          9 callgsubr
          endchar
        </CharString>
        <CharString name="nacute">
          -27 279 603 -94 callgsubr
          180 -608 rmoveto
          -88 callgsubr
          endchar
        </CharString>
        <CharString name="nacute.loclPLK">
          -27 279 603 -67 callsubr
          180 -608 rmoveto
          -88 callgsubr
          endchar
        </CharString>
        <CharString name="napostrophe">
          -15 5 593 29 callgsubr
          465 -593 rmoveto
          -88 callgsubr
          endchar
        </CharString>
        <CharString name="ncaron">
          -27 274 603 -72 callsubr
          291 -737 rmoveto
          -88 callgsubr
          endchar
        </CharString>
        <CharString name="ncommaaccent">
          -27 459 hmoveto
          -88 callgsubr
          -201 -520 -84 callgsubr
        </CharString>
        <CharString name="nine">
          21 293 -8 rmoveto
          142 73 22 92 31 hvcurveto
          20 58 4 78 111 vvcurveto
          109 -3 74 -15 52 vhcurveto
          96 -29 -76 12 -140 33 callsubr
          23 hvcurveto
          6 hlineto
          -259 -25 -44 -207 -51 -76 6 7 -58 vhcurveto
          -42 vlineto
          -9 64 81 -6 50 hhcurveto
          15 340 rmoveto
          -168 -32 9 154 142 38 15 162 159 45 -21 -170 -94 -18 -35 -186 hvcurveto
          endchar
        </CharString>
        <CharString name="nine.dnom">
          -250 171 -4 -55 callgsubr
        </CharString>
        <CharString name="nine.numr">
          -250 171 304 -55 callgsubr
        </CharString>
        <CharString name="nine.ss01">
          31 236 hmoveto
          61 hlineto
          173 134 117 155 185 vvcurveto
          181 -60 41 -199 -200 -56 -56 -150 -163 50 -41 179 123 51 13 26 30 vhcurveto
          5 -1 -42 -107 -91 -104 -141 -108 rlinecurve
          94 326 rmoveto
          -151 -60 0 160 129 43 32 168 157 52 -16 -164 -121 -64 -20 -145 hvcurveto
          endchar
        </CharString>
        <CharString name="nine.tnum">
          31 310 -8 rmoveto
          141 73 22 81 28 hvcurveto
          23 67 4 79 112 vvcurveto
          111 -3 74 -18 60 vhcurveto
          86 -27 -75 12 -139 33 callsubr
          22 hvcurveto
          6 hlineto
          -259 -25 -44 -206 -52 -75 6 7 -58 vhcurveto
          -42 vlineto
          -9 63 81 -6 51 hhcurveto
          15 340 rmoveto
          -168 -33 9 154 142 38 15 163 159 44 -21 -170 -94 -17 -35 -186 hvcurveto
          endchar
        </CharString>
        <CharString name="notequal">
          -89 231 132 rmoveto
          238 41 -220 hlineto
          74 160 rlineto
          146 40 -127 hlineto
          64 137 rlineto
          -41 hlineto
          -64 -137 rlineto
          -231 -40 212 hlineto
          -74 -160 rlineto
          -138 -41 119 hlineto
          -62 -132 rlineto
          42 hlineto
          endchar
        </CharString>
        <CharString name="ntilde">
          -26 475 742 rmoveto
          -32 hlineto
          -44 -4 -16 -30 -31 -34 -97 callgsubr
          -40 callgsubr
          -16 -742 rmoveto
          -88 callgsubr
          endchar
        </CharString>
        <CharString name="numbersign">
          194 365 hmoveto
          41 hlineto
          45 199 rlineto
          136 41 -126 hlineto
          46 199 rlineto
          117 41 -108 hlineto
          49 208 rlineto
          -41 hlineto
          -48 -208 rlineto
          -194 hlineto
          48 208 rlineto
          -40 hlineto
          -49 -208 rlineto
          -129 -41 120 hlineto
          -46 -199 rlineto
          -111 -41 101 hlineto
          -45 -199 rlineto
          40 hlineto
          46 199 rlineto
          194 hlineto
          55 240 rmoveto
          -46 -199 rlineto
          -194 hlineto
          46 199 rlineto
          endchar
        </CharString>
        <CharString name="o">
          -49 289 -8 rmoveto
          205 12 47 215 216 -12 48 -205 -204 -13 -48 -100 callsubr
          endchar
        </CharString>
        <CharString name="oacute">
          -49 260 603 -94 callgsubr
          29 -616 -104 callgsubr
          endchar
        </CharString>
        <CharString name="oacute.loclPLK">
          -50 267 603 -67 callsubr
          22 -616 -104 callgsubr
          endchar
        </CharString>
        <CharString name="obreve">
          -50 418 742 rmoveto
          -35 hlineto
          -71 -2 -37 -93 -94 callsubr
          -129 -750 -104 callgsubr
          endchar
        </CharString>
        <CharString name="ocircumflex">
          -49 156 -41 callsubr
          133 -616 -104 callgsubr
          endchar
        </CharString>
        <CharString name="odieresis">
          -49 173 -44 callsubr
          -66 -738 -104 callgsubr
          endchar
        </CharString>
        <CharString name="oe">
          321 876 256 rmoveto
          200 -11 62 -184 -118 -54 -23 -55 -25 vhcurveto
          60 -24 -54 18 -117 hhcurveto
          -204 -13 -48 -216 -215 13 -47 204 120 52 17 64 23 hvcurveto
          -62 28 56 -19 111 hhcurveto
          64 73 5 8 40 hvcurveto
          -87 callsubr
          hlineto
          -198 238 rmoveto
          119 34 -71 callgsubr
          18 28 154 vhcurveto
          -389 -443 rmoveto
          -29 callgsubr
        </CharString>
        <CharString name="ogonek">
          -521 107 -195 rmoveto
          -16 callsubr
        </CharString>
        <CharString name="ograve">
          -49 292 603 -74 callgsubr
          123 -745 -104 callgsubr
          endchar
        </CharString>
        <CharString name="ohorn">
          -50 508 606 rmoveto
          -59 callsubr
          -58 hlineto
          6 -29 -35 2 -45 hhcurveto
          -204 -13 -47 -216 -215 13 -47 204 205 12 47 215 121 -4 68 -39 36 hvcurveto
          68 1 16 23 76 vvcurveto
          27 vlineto
          -258 -572 rmoveto
          -29 callgsubr
        </CharString>
        <CharString name="ohungarumlaut">
          -50 181 -8 callgsubr
          -84 -617 -104 callgsubr
          endchar
        </CharString>
        <CharString name="omacron">
          -50 174 695 -43 callgsubr
          115 -749 -104 callgsubr
          endchar
        </CharString>
        <CharString name="one">
          -261 194 hmoveto
          48 688 -37 hlineto
          -158 -89 rlineto
          -47 vlineto
          147 76 rlineto
          endchar
        </CharString>
        <CharString name="one.dnom">
          -406 111 hmoveto
          45 callsubr
        </CharString>
        <CharString name="one.numr">
          -406 111 308 rmoveto
          45 callsubr
        </CharString>
        <CharString name="one.tnum">
          31 124 hmoveto
          452 44 -196 644 -36 hlineto
          -215 -106 rlineto
          -46 vlineto
          204 94 rlineto
          -586 -209 vlineto
          endchar
        </CharString>
        <CharString name="oneeighth">
          176 -43 callsubr
          -46 -637 rmoveto
          -12 callsubr
          -48 hlineto
          61 -692 -97 callsubr
        </CharString>
        <CharString name="onehalf">
          149 -43 callsubr
          402 51 rmoveto
          -448 -688 rlineto
          -12 callsubr
          -73 -628 rmoveto
          38 0 16 27 11 vhcurveto
          115 50 rlineto
          53 23 18 21 63 vvcurveto
          89 -54 6 -68 -34 -49 -4 -5 -40 vhcurveto
          -39 vlineto
          5 56 39 3 22 hhcurveto
          69 18 -9 -51 -36 -8 -15 -35 -16 hvcurveto
          -36 -14 -39 -17 -37 -16 rrcurveto
          -55 -24 0 -16 -82 vvcurveto
          -41 251 40 -213 vlineto
          endchar
        </CharString>
        <CharString name="onequarter">
          55 -43 callsubr
          -46 -637 rmoveto
          -12 callsubr
          -48 hlineto
          16 40 callsubr
          -154 51 callsubr
          200 vlineto
          endchar
        </CharString>
        <CharString name="ordfeminine">
          -225 174 316 rmoveto
          45 55 2 45 26 hvcurveto
          5 hlineto
          5 -43 rlineto
          34 237 hlineto
          111 -22 28 -124 -51 -49 -3 -6 -30 vhcurveto
          -37 vlineto
          5 27 54 4 36 hhcurveto
          103 16 -9 -96 hvcurveto
          -27 vlineto
          1 -52 -75 2 -22 hhcurveto
          -89 -22 -25 -82 -90 41 -17 89 hvcurveto
          5 34 rmoveto
          -77 -20 14 60 61 17 10 65 hvcurveto
          140 -23 hlineto
          -31 -3 -26 -10 -23 vhcurveto
          -39 -15 -51 -3 -46 hhcurveto
          endchar
        </CharString>
        <CharString name="ordmasculine">
          -213 208 315 rmoveto
          149 9 33 156 155 -9 37 -149 -150 -9 -37 -155 -156 9 -33 150 hvcurveto
          35 vmoveto
          -118 0 24 130 129 0 26 118 117 0 -26 -129 -130 0 -24 -117 hvcurveto
          endchar
        </CharString>
        <CharString name="orn.001">
          -291 289 341 rmoveto
          105 -6 17 -117 -112 -6 -17 -105 -102 6 -16 112 117 6 16 102 vhcurveto
          endchar
        </CharString>
        <CharString name="orn.002">
          -80 210 -45 callsubr
          63 101 -36 callgsubr
          121 87 28 callgsubr
          -29 -21 22 28 29 21 21 29 28 22 -21 -29 -28 -22 -22 -28 hvcurveto
          endchar
        </CharString>
        <CharString name="orn.003">
          -213 211 -45 callsubr
          63 101 -36 callgsubr
          63 101 -1 callsubr
          endchar
        </CharString>
        <CharString name="orn.007">
          -291 168 222 rmoveto
          67 54 53 67 67 -54 54 -67 -67 -53 -54 -67 -67 53 -53 67 hvcurveto
          endchar
        </CharString>
        <CharString name="orn.010">
          165 397 hmoveto
          351 348 hlineto
          205 -145 143 -206 -207 -145 -143 -205 -204 145 -144 207 vhcurveto
          endchar
        </CharString>
        <CharString name="orn.015">
          52 callgsubr
          187 60 -187 hlineto
          187 -272 rmoveto
          213 212 rlineto
          166 60 -191 hlineto
          -188 -187 rlineto
          endchar
        </CharString>
        <CharString name="orn.016">
          52 callgsubr
          566 60 -566 hlineto
          endchar
        </CharString>
        <CharString name="orn.017">
          -568 0 vmoveto
          60 688 -60 hlineto
          endchar
        </CharString>
        <CharString name="orn.018">
          163 211 -45 callsubr
          369 hmoveto
          99 62 67 110 126 vvcurveto
          125 -67 111 -99 62 vhcurveto
          -32 -51 rlineto
          82 -51 56 -92 -104 vvcurveto
          -105 -55 -91 -83 -52 vhcurveto
          -274 51 -36 callgsubr
          243 hmoveto
          65 41 44 73 83 vvcurveto
          83 -44 73 -66 41 vhcurveto
          -31 -51 rlineto
          48 -31 33 -54 -61 vvcurveto
          -62 -33 -53 -47 -31 vhcurveto
          -149 50 -1 callsubr
          118 hmoveto
          31 20 20 34 42 vvcurveto
          41 -20 22 callgsubr
        </CharString>
        <CharString name="orn.019">
          -80 338 -39 callsubr
          -89 36 28 callgsubr
          -28 -22 22 28 29 22 21 28 29 21 -21 -29 -28 -21 -22 -29 hvcurveto
          endchar
        </CharString>
        <CharString name="orn.020">
          -213 204 -39 callsubr
          -31 50 rmoveto
          31 20 21 34 42 vvcurveto
          41 -21 22 callgsubr
        </CharString>
        <CharString name="orn.021">
          124 376 -116 rmoveto
          168 86 163 197 197 vvcurveto
          188 -149 144 -182 -183 -148 -144 -188 -196 164 -198 167 -86 vhcurveto
          endchar
        </CharString>
        <CharString name="orn.022">
          -239 171 220 rmoveto
          98 80 83 40 40 -80 83 -98 -81 -42 -55 -68 -68 42 -55 81 hvcurveto
          endchar
        </CharString>
        <CharString name="oslash">
          -49 456 486 rmoveto
          49 79 rlineto
          -45 hlineto
          -38 -62 rlineto
          11 -32 -42 4 -59 hhcurveto
          -204 -13 -48 -6 callgsubr
          35 hvcurveto
          -338 -232 -9 callsubr
          250 401 rlineto
          30 -30 0 -57 -105 vvcurveto
          -188 0 -32 -171 vhcurveto
          endchar
        </CharString>
        <CharString name="oslashacute">
          -50 428 737 -25 callsubr
          154 -118 rmoveto
          49 79 rlineto
          -45 hlineto
          -38 -61 rlineto
          10 -32 -42 4 -59 hhcurveto
          -204 -13 -47 -6 callgsubr
          34 hvcurveto
          -338 -231 -9 callsubr
          251 400 rlineto
          29 -30 0 -57 -104 vvcurveto
          -188 0 -32 -171 vhcurveto
          endchar
        </CharString>
        <CharString name="otilde">
          -49 463 742 rmoveto
          -32 hlineto
          -44 -4 -16 -30 -31 -34 -97 callgsubr
          -40 callgsubr
          -174 -750 -104 callgsubr
          endchar
        </CharString>
        <CharString name="p">
          -34 97 -200 rmoveto
          46 272 4 hlineto
          -59 25 58 -21 94 hhcurveto
          24 callgsubr
          -78 -75 -11 -77 -28 hvcurveto
          -5 hlineto
          -3 80 rlineto
          -38 hlineto
          211 -475 rmoveto
          -84 -48 22 62 -22 hvcurveto
          -10 30 -1 45 61 vvcurveto
          59 0 46 14 39 vhcurveto
          55 18 50 22 83 41 callsubr
        </CharString>
        <CharString name="paragraph">
          -64 316 -144 rmoveto
          42 832 -42 hlineto
          -233 -11 -31 -203 -203 11 -29 233 hvcurveto
          108 -366 rmoveto
          42 832 -42 hlineto
          endchar
        </CharString>
        <CharString name="parenleft">
          -343 226 -150 rmoveto
          40 hlineto
          -88 114 -45 53 280 vvcurveto
          280 45 52 88 114 vhcurveto
          -40 hlineto
          -104 -126 -34 -58 -262 vvcurveto
          -263 34 -57 104 -127 vhcurveto
          endchar
        </CharString>
        <CharString name="parenleft.ss02">
          40 callgsubr
          -204 145 -144 207 hvcurveto
          endchar
        </CharString>
        <CharString name="parenright">
          -343 20 -150 rmoveto
          39 hlineto
          104 127 35 57 263 vvcurveto
          262 -35 58 -104 126 vhcurveto
          -39 hlineto
          87 -114 46 -52 -280 vvcurveto
          -280 -46 -53 -87 -114 vhcurveto
          endchar
        </CharString>
        <CharString name="parenright.ss02">
          -231 0 vmoveto
          207 145 144 204 205 -145 143 -207 hvcurveto
          endchar
        </CharString>
        <CharString name="partialdiff">
          65 callgsubr
          44 -3 41 -9 65 hvcurveto
          -15 109 -67 135 -99 72 rrcurveto
          -54 -4 hlineto
          96 -75 47 -80 32 -97 -5 -3 rcurveline
          23 -33 -48 11 -65 hhcurveto
          -198 -17 callgsubr
        </CharString>
        <CharString name="percent">
          173 196 311 7 callgsubr
          -43 -311 rmoveto
          -12 callsubr
          -48 hlineto
          -405 -339 rmoveto
          19 callgsubr
          410 -357 7 callgsubr
          38 vmoveto
          19 callgsubr
          endchar
        </CharString>
        <CharString name="period">
          -441 64 hmoveto
          59 73 -59 hlineto
          endchar
        </CharString>
        <CharString name="periodcentered">
          -441 64 263 -79 callgsubr
        </CharString>
        <CharString name="perthousand">
          304 179 360 rmoveto
          9 callsubr
          -108 -360 rmoveto
          47 hlineto
          461 688 rlineto
          -48 hlineto
          -352 -291 rmoveto
          37 callgsubr
          -8 -2 -72 hvcurveto
          292 -405 rmoveto
          111 8 28 140 139 -8 29 -111 -110 -10 -29 -139 -140 10 -28 110 hvcurveto
          283 hmoveto
          9 callsubr
          -283 37 rmoveto
          -72 -8 2 129 129 8 2 72 77 3 -2 -129 -129 -8 -2 -72 hvcurveto
          283 hmoveto
          37 callgsubr
          -9 -2 -71 hvcurveto
          endchar
        </CharString>
        <CharString name="pi">
          -35 450 hmoveto
          46 510 -399 -510 46 468 307 hlineto
          endchar
        </CharString>
        <CharString name="plus">
          -89 249 53 rmoveto
          40 179 180 41 -180 180 -40 -180 -179 -41 179 hlineto
          endchar
        </CharString>
        <CharString name="plusminus">
          -89 249 184 rmoveto
          40 180 180 41 -180 179 -40 -179 -179 -41 179 hlineto
          -179 -364 rmoveto
          28 callsubr
        </CharString>
        <CharString name="product">
          108 576 -190 rmoveto
          48 878 -513 -878 48 834 417 hlineto
          endchar
        </CharString>
        <CharString name="q">
          -34 451 -200 rmoveto
          46 710 -38 hlineto
          -4 -80 rlineto
          -4 hlineto
          77 -28 -75 11 -78 hhcurveto
          -164 -34 -51 -212 -212 33 -51 165 94 58 21 59 25 hvcurveto
          4 hlineto
          -166 -37 rmoveto
          -145 -22 27 193 193 22 28 145 83 50 -22 -49 17 hvcurveto
          16 -44 0 -47 -59 vvcurveto
          -60 -1 -46 -12 -35 vhcurveto
          -57 -20 -48 -22 -85 hhcurveto
          endchar
        </CharString>
        <CharString name="question">
          14 callgsubr
          87 3 callgsubr
          -94 12 callgsubr
        </CharString>
        <CharString name="question.case">
          14 callgsubr
          86 3 callgsubr
          -93 12 callgsubr
        </CharString>
        <CharString name="questiondown">
          -200 274 437 rmoveto
          59 73 -59 hlineto
          -5 -696 -40 callsubr
        </CharString>
        <CharString name="questiondown.case">
          -131 284 615 rmoveto
          59 72 -59 hlineto
          -5 -695 -40 callsubr
        </CharString>
        <CharString name="quotedbl">
          -340 74 451 rmoveto
          31 hlineto
          8 151 rlineto
          86 -48 -86 vlineto
          119 -151 rmoveto
          30 hlineto
          9 151 rlineto
          86 -48 -86 vlineto
          endchar
        </CharString>
        <CharString name="quotedblbase">
          -307 19 callsubr
          135 hmoveto
          -25 vlineto
          71 15 20 81 hvcurveto
          77 -59 -73 24 -17 -26 callsubr
          -45 vhcurveto
          endchar
        </CharString>
        <CharString name="quotedblleft">
          -307 20 callsubr
          134 -77 rmoveto
          59 73 -24 17 hlineto
          49 6 14 45 vhcurveto
          25 vlineto
          -70 -16 -21 -80 hvcurveto
          endchar
        </CharString>
        <CharString name="quotedblright">
          -307 17 callsubr
          135 hmoveto
          -26 vlineto
          71 15 21 81 hvcurveto
          76 -59 -3 callgsubr
          -49 -6 -13 -45 vhcurveto
          endchar
        </CharString>
        <CharString name="quoteleft">
          -442 20 callsubr
          endchar
        </CharString>
        <CharString name="quoteright">
          -442 17 callsubr
          endchar
        </CharString>
        <CharString name="quotesinglbase">
          -442 19 callsubr
          endchar
        </CharString>
        <CharString name="quotesingle">
          -450 74 451 rmoveto
          31 hlineto
          8 151 rlineto
          86 -48 -86 vlineto
          endchar
        </CharString>
        <CharString name="r">
          -281 97 hmoveto
          46 252 hlineto
          142 30 77 144 vhcurveto
          47 vlineto
          -83 -68 -21 -93 -23 hvcurveto
          -5 hlineto
          -4 106 rlineto
          -37 hlineto
          endchar
        </CharString>
        <CharString name="racute">
          -281 152 603 -94 callgsubr
          -55 -608 rmoveto
          -62 callgsubr
          endchar
        </CharString>
        <CharString name="radical">
          -50 289 -106 rmoveto
          50 hlineto
          227 876 rlineto
          -45 hlineto
          -212 -818 -182 370 -97 -44 13 -35 59 27 rlineto
          endchar
        </CharString>
        <CharString name="rcaron">
          -281 147 603 -72 callsubr
          56 -737 rmoveto
          -62 callgsubr
          endchar
        </CharString>
        <CharString name="rcommaaccent">
          -281 97 hmoveto
          -62 callgsubr
          -20 -720 -84 callgsubr
        </CharString>
        <CharString name="registered">
          97 362 696 rmoveto
          63 callgsubr
          61 callgsubr
          hvcurveto
          -674 7 callsubr
          139 397 rmoveto
          54 -5 56 -97 vhcurveto
          -165 -372 37 152 117 hlineto
          8 6 0 1 7 hvcurveto
          58 -153 rlineto
          42 hlineto
          -64 158 rlineto
          48 16 8 45 43 vvcurveto
          -230 -76 rmoveto
          151 124 vlineto
          65 4 -30 -45 -45 -5 -31 -71 hvcurveto
          endchar
        </CharString>
        <CharString name="rightCloseDialog">
          -6 623 687 rmoveto
          -624 -60 564 -567 -189 hlineto
          -188 -187 rlineto
          -85 vlineto
          213 212 rlineto
          224 hlineto
          -437 60 rmoveto
          -187 -60 187 hlineto
          endchar
        </CharString>
        <CharString name="rightOpenDialog">
          -5 624 687 rmoveto
          -625 -60 565 -567 -565 -60 625 hlineto
          endchar
        </CharString>
        <CharString name="ring">
          -339 144 610 -71 callsubr
          endchar
        </CharString>
        <CharString name="s">
          -129 254 -8 rmoveto
          128 54 24 119 12 callsubr
          hvcurveto
          -141 14 rlineto
          -59 6 -16 9 75 vvcurveto
          94 54 4 82 63 44 -3 -9 57 vhcurveto
          41 vlineto
          8 -41 -63 5 -47 hhcurveto
          -124 -70 -12 -134 -87 21 -31 89 -10 hvcurveto
          144 -14 rlineto
          58 -6 16 -4 -85 vvcurveto
          -73 -15 -28 -112 -67 -34 2 9 -84 vhcurveto
          -42 vlineto
          -6 47 74 -5 54 hhcurveto
          endchar
        </CharString>
        <CharString name="sacute">
          -129 228 603 -94 callgsubr
          26 -616 -95 callgsubr
          endchar
        </CharString>
        <CharString name="sacute.loclPLK">
          -129 228 603 -67 callsubr
          26 -616 -95 callgsubr
          endchar
        </CharString>
        <CharString name="scaron">
          -129 225 603 -52 callsubr
          135 -745 -95 callgsubr
          endchar
        </CharString>
        <CharString name="scedilla">
          -129 436 135 rmoveto
          12 callsubr
          vhcurveto
          -141 14 rlineto
          -59 6 -16 9 75 vvcurveto
          94 54 4 82 63 44 -3 -9 57 vhcurveto
          41 vlineto
          7 -41 -63 5 -47 hhcurveto
          -124 -70 -11 -134 -87 21 -31 89 -10 hvcurveto
          144 -14 rlineto
          58 -6 16 -4 -85 vvcurveto
          -73 -15 -28 -112 -67 -34 2 9 -84 vhcurveto
          -42 vlineto
          41 -5 60 -5 51 -1 66 callsubr
          119 2 50 26 115 vvcurveto
          endchar
        </CharString>
        <CharString name="scircumflex">
          -129 117 603 -89 callgsubr
          137 -616 -95 callgsubr
          endchar
        </CharString>
        <CharString name="scommaaccent">
          -129 254 -8 -95 callgsubr
          -47 -203 -84 callgsubr
        </CharString>
        <CharString name="second">
          -312 55 391 62 callgsubr
          118 -296 62 callgsubr
          endchar
        </CharString>
        <CharString name="section">
          69 326 -171 rmoveto
          139 76 25 120 36 0 37 -20 29 hvcurveto
          98 3 11 93 70 vvcurveto
          91 -42 24 -117 31 vhcurveto
          -173 48 rlineto
          -81 21 -14 17 80 vvcurveto
          94 66 4 114 50 66 -5 -5 40 vhcurveto
          43 vlineto
          5 -33 -70 6 -64 hhcurveto
          -140 -76 -25 -120 -37 0 -37 20 -28 hvcurveto
          -99 -4 -10 -92 -70 vvcurveto
          -92 42 -23 129 -34 vhcurveto
          183 -50 rlineto
          59 -16 14 -17 -80 vvcurveto
          -94 -66 -4 -114 -51 -65 5 5 -40 vhcurveto
          -43 vlineto
          -5 33 71 -6 64 hhcurveto
          180 282 rmoveto
          -15 -18 6 9 -35 hvcurveto
          -255 69 rlineto
          -58 15 -11 19 68 vvcurveto
          81 27 35 51 14 19 -6 -10 37 vhcurveto
          264 -71 rlineto
          46 -12 12 -19 -68 vvcurveto
          -81 -28 -35 -50 vhcurveto
          endchar
        </CharString>
        <CharString name="semicolon">
          -441 64 437 rmoveto
          59 73 -59 hlineto
          -28 -590 23 callgsubr
        </CharString>
        <CharString name="seven">
          -69 156 hmoveto
          53 hlineto
          294 649 rlineto
          39 -459 -45 404 vlineto
          endchar
        </CharString>
        <CharString name="seven.dnom">
          -298 86 hmoveto
          41 callgsubr
        </CharString>
        <CharString name="seven.numr">
          -298 86 308 rmoveto
          41 callgsubr
        </CharString>
        <CharString name="seven.tnum">
          31 211 hmoveto
          54 hlineto
          313 649 rlineto
          39 -498 -45 444 vlineto
          endchar
        </CharString>
        <CharString name="seveneighths">
          184 99 hmoveto
          47 hlineto
          449 687 rlineto
          -48 hlineto
          -461 -379 rmoveto
          47 hlineto
          165 342 rlineto
          33 -272 -37 226 vlineto
          360 -650 -97 callsubr
        </CharString>
        <CharString name="six">
          21 349 -8 rmoveto
          203 37 46 174 168 -60 21 -179 -142 -45 -25 -27 -22 hvcurveto
          -6 hlineto
          259 25 44 206 50 75 -6 -7 60 vhcurveto
          42 vlineto
          9 -68 -79 6 -48 hhcurveto
          -143 -73 -22 -99 -33 hvcurveto
          -17 -53 -3 -78 -109 vvcurveto
          -111 2 -75 14 -42 vhcurveto
          -103 32 75 -12 139 1 callgsubr
        </CharString>
        <CharString name="six.dnom">
          -250 202 -4 -55 callsubr
        </CharString>
        <CharString name="six.numr">
          -250 202 304 -55 callsubr
        </CharString>
        <CharString name="six.ss01">
          31 331 -8 rmoveto
          200 56 55 151 162 -50 41 -179 -123 -51 -12 -26 -30 hvcurveto
          -6 1 43 107 88 101 144 111 rlinecurve
          5 -61 vlineto
          -184 -143 -106 -156 -175 vvcurveto
          -181 60 -41 199 vhcurveto
          -2 44 rmoveto
          -157 -52 16 163 122 64 20 145 151 60 0 -160 -129 -43 -32 -168 hvcurveto
          endchar
        </CharString>
        <CharString name="six.tnum">
          31 342 -8 rmoveto
          204 36 46 174 168 -60 21 -179 -122 -59 -18 -34 -28 hvcurveto
          -6 hlineto
          259 25 44 206 52 75 -6 -7 59 vhcurveto
          42 vlineto
          9 -64 -81 6 -51 hhcurveto
          -140 -73 -22 -88 -31 hvcurveto
          -21 -59 -4 -79 -113 vvcurveto
          -110 3 -74 14 -48 vhcurveto
          -99 30 75 -12 140 1 callgsubr
        </CharString>
        <CharString name="slash">
          -293 -1 -55 rmoveto
          46 hlineto
          291 798 rlineto
          -47 hlineto
          endchar
        </CharString>
        <CharString name="space">
          -402 endchar
        </CharString>
        <CharString name="sterling">
          -46 180 44 rmoveto
          291 266 45 -266 vlineto
          120 6 97 54 32 vhcurveto
          19 34 50 4 73 hhcurveto
          31 55 -5 -6 38 hvcurveto
          42 vlineto
          8 -31 -60 5 -51 hhcurveto
          -210 -37 -61 -255 hvcurveto
          -74 -45 74 -291 -74 -44 475 44 hlineto
          endchar
        </CharString>
        <CharString name="summation">
          79 97 -190 rmoveto
          513 45 -452 hlineto
          320 394 -320 395 rlineto
          452 44 -513 -40 hlineto
          321 -399 -321 -398 rlineto
          endchar
        </CharString>
        <CharString name="t">
          -292 136 hmoveto
          46 468 124 42 -124 49 callgsubr
          -42 107 hlineto
          endchar
        </CharString>
        <CharString name="tbar">
          -292 307 287 rmoveto
          -125 181 -8 callsubr
          -181 -104 -41 104 -246 46 246 125 hlineto
          endchar
        </CharString>
        <CharString name="tcaron">
          -292 346 451 4 callgsubr
          -223 -601 rmoveto
          46 468 -8 callsubr
          hlineto
          endchar
        </CharString>
        <CharString name="thorn">
          -34 97 -190 rmoveto
          46 262 4 hlineto
          -59 25 58 -21 94 hhcurveto
          24 callgsubr
          -93 -59 -20 -60 -25 hvcurveto
          -4 305 -46 hlineto
          211 -708 rmoveto
          -84 -49 22 66 -22 hvcurveto
          -9 26 -1 46 60 vvcurveto
          59 0 46 12 36 vhcurveto
          58 21 50 22 82 41 callsubr
        </CharString>
        <CharString name="three">
          -31 260 62 callsubr
          -76 13 hvcurveto
          4 vlineto
          74 15 43 46 100 vvcurveto
          130 -56 43 callgsubr
          51 26 callsubr
          42 -42 -105 -127 -77 -17 -131 -46 -80 5 7 -68 hvcurveto
          57 callgsubr
          endchar
        </CharString>
        <CharString name="three.dnom">
          -277 154 -4 -47 callgsubr
        </CharString>
        <CharString name="three.numr">
          -277 154 304 -47 callgsubr
        </CharString>
        <CharString name="three.tnum">
          31 301 62 callsubr
          -75 13 hvcurveto
          4 vlineto
          73 15 44 46 100 vvcurveto
          130 -57 43 callgsubr
          52 26 callsubr
          41 -42 -105 -127 -77 -17 -130 -46 -81 5 7 -68 hvcurveto
          57 callgsubr
          endchar
        </CharString>
        <CharString name="threeeighths">
          254 154 304 rmoveto
          124 26 35 68 62 -27 22 -44 7 hvcurveto
          2 vlineto
          42 9 24 25 55 vvcurveto
          73 -35 26 -109 -35 -49 -4 -5 -33 vhcurveto
          -35 vlineto
          4 33 43 2 29 hhcurveto
          82 33 -7 -60 -55 -37 -12 -39 hvcurveto
          -79 -37 79 hlineto
          58 22 -18 -53 -60 -40 -7 -73 -27 -47 3 3 -39 hvcurveto
          -35 vlineto
          -5 34 50 -3 34 hhcurveto
          16 -304 rmoveto
          47 hlineto
          449 687 rlineto
          -48 hlineto
          65 -691 -97 callsubr
        </CharString>
        <CharString name="threequarters">
          163 58 357 rmoveto
          -37 vlineto
          -5 33 46 -5 31 hhcurveto
          119 22 39 70 49 -22 25 -29 13 hvcurveto
          4 vlineto
          28 14 19 25 44 vvcurveto
          73 -32 30 -104 -30 -46 -4 -5 -33 vhcurveto
          -38 vlineto
          4 33 42 3 27 hhcurveto
          69 32 -9 -57 -55 -34 -11 -29 hvcurveto
          -79 -36 79 hlineto
          48 19 -20 -52 -58 -37 -9 -63 -20 -36 3 5 -53 hvcurveto
          120 -357 rmoveto
          -12 callsubr
          -48 hlineto
          11 40 callsubr
          -155 51 callsubr
          201 vlineto
          endchar
        </CharString>
        <CharString name="tilde">
          -241 367 743 -27 callsubr
        </CharString>
        <CharString name="tildecomb">
          -20 742 -27 callsubr
        </CharString>
        <CharString name="tildecomb.case">
          -20 887 -27 callsubr
        </CharString>
        <CharString name="trademark">
          93 139 385 rmoveto
          28 276 101 27 -227 -27 98 hlineto
          187 -276 rmoveto
          27 241 4 hlineto
          112 -241 rlineto
          20 hlineto
          112 243 rlineto
          4 -243 28 303 -33 hlineto
          -118 -256 rlineto
          -4 hlineto
          -119 256 rlineto
          -33 hlineto
          endchar
        </CharString>
        <CharString name="two">
          -20 125 106 rmoveto
          41 0 25 7 26 vhcurveto
          5 20 15 15 26 11 77 34 80 34 69 55 callsubr
          -123 -73 -2 callsubr
          -113 -49 -2 -29 -150 vvcurveto
          -73 453 45 -405 vlineto
          endchar
        </CharString>
        <CharString name="two.dnom">
          -270 86 64 -47 callsubr
        </CharString>
        <CharString name="two.numr">
          -270 86 372 -47 callsubr
        </CharString>
        <CharString name="two.tnum">
          31 151 106 rmoveto
          41 1 25 6 24 vhcurveto
          6 22 15 15 26 11 76 34 80 34 70 55 callsubr
          -124 -72 -2 callsubr
          -114 -49 -1 -29 -150 vvcurveto
          -73 453 45 -406 vlineto
          endchar
        </CharString>
        <CharString name="u">
          -26 467 hmoveto
          38 510 -46 -264 hlineto
          -7 callsubr
          endchar
        </CharString>
        <CharString name="uacute">
          -26 278 603 -94 callgsubr
          189 -608 rmoveto
          -102 callsubr
          endchar
        </CharString>
        <CharString name="ubreve">
          -27 430 742 rmoveto
          -35 hlineto
          -71 -2 -37 -93 -94 callsubr
          37 -742 rmoveto
          -102 callsubr
          endchar
        </CharString>
        <CharString name="ucircumflex">
          -26 168 -41 callsubr
          299 -608 rmoveto
          -102 callsubr
          endchar
        </CharString>
        <CharString name="udieresis">
          -26 184 -44 callsubr
          101 -730 rmoveto
          -102 callsubr
          endchar
        </CharString>
        <CharString name="ugrave">
          -26 297 603 -74 callgsubr
          296 -737 rmoveto
          -102 callsubr
          endchar
        </CharString>
        <CharString name="uhorn">
          -27 571 606 -42 callgsubr
          -128 -23 21 145 vhcurveto
          308 -46 -319 39 callsubr
          3 -80 rlineto
          38 479 14 hlineto
          74 17 21 79 hvcurveto
          27 vlineto
          endchar
        </CharString>
        <CharString name="uhungarumlaut">
          -27 193 -8 callgsubr
          82 -609 rmoveto
          -102 callsubr
          endchar
        </CharString>
        <CharString name="umacron">
          -27 186 695 -43 callgsubr
          281 -741 rmoveto
          -102 callsubr
          endchar
        </CharString>
        <CharString name="underscore">
          -284 -163 68 callgsubr
          endchar
        </CharString>
        <CharString name="underscoredbl">
          -284 -161 68 callgsubr
          -135 68 callgsubr
          endchar
        </CharString>
        <CharString name="uni00AD">
          -272 64 263 -3 callsubr
        </CharString>
        <CharString name="uni00B2">
          -275 89 379 rmoveto
          52 callsubr
          23 -1 callgsubr
          -112 -48 rlineto
          -55 -23 0 -17 -81 vvcurveto
          -42 251 40 -213 vlineto
          endchar
        </CharString>
        <CharString name="uni00B3">
          -285 150 310 rmoveto
          119 22 39 70 49 -23 25 -28 13 hvcurveto
          4 vlineto
          27 14 19 25 44 vvcurveto
          73 -31 30 -104 -31 -45 -4 -5 -34 vhcurveto
          -38 17 callgsubr
          -20 -52 -58 -38 -9 -62 -21 -35 3 5 -54 hvcurveto
          -37 vlineto
          -5 34 45 -5 32 hhcurveto
          endchar
        </CharString>
        <CharString name="uni00B5">
          -27 459 509 rmoveto
          -263 vlineto
          -7 callgsubr
          308 -46 -699 14 callsubr
          509 hlineto
          endchar
        </CharString>
        <CharString name="uni00B9">
          -405 -43 callsubr
          endchar
        </CharString>
        <CharString name="uni0162">
          -48 38 687 rmoveto
          -45 229 -642 8 54 callgsubr
          642 228 45 hlineto
          endchar
        </CharString>
        <CharString name="uni0163">
          -292 182 509 rmoveto
          49 callgsubr
          -41 107 -468 7 54 callgsubr
          468 124 41 hlineto
          endchar
        </CharString>
        <CharString name="uni018F">
          75 337 696 rmoveto
          -56 -74 -8 -11 -46 hvcurveto
          -44 vlineto
          11 44 68 8 51 hhcurveto
          214 29 -23 -259 1 hvcurveto
          -481 -26 hlineto
          -308 14 -44 250 251 14 44 308 313 -39 39 -240 vhcurveto
          14 -660 rmoveto
          -195 -20 6 284 -2 hvcurveto
          434 hlineto
          -284 -1 -20 -6 -196 hhcurveto
          endchar
        </CharString>
        <CharString name="uni019D">
          36 callgsubr
          -793 hlineto
          -44 -8 -12 -92 vhcurveto
          -39 vlineto
          102 45 6 101 hvcurveto
          693 4 vlineto
          416 -600 rlineto
          46 688 hlineto
          endchar
        </CharString>
        <CharString name="uni01C4">
          662 965 -82 callgsubr
          -748 -881 27 callsubr
          636 -687 rmoveto
          489 44 -428 hlineto
          420 601 rlineto
          42 -470 -44 410 vlineto
          -421 -601 rlineto
          -588 2 30 callgsubr
          endchar
        </CharString>
        <CharString name="uni01C5">
          559 923 603 -72 callsubr
          -706 -737 27 callsubr
          48 -643 30 callgsubr
          443 -44 rmoveto
          389 42 -327 hlineto
          325 430 rlineto
          37 -375 -42 315 vlineto
          -327 -430 rlineto
          endchar
        </CharString>
        <CharString name="uni01C6">
          462 269 -8 rmoveto
          -31 callgsubr
          742 -46 -305 -4 hlineto
          59 -25 -58 21 -94 hhcurveto
          -164 -33 -51 -212 -211 34 -51 163 hvcurveto
          550 611 -72 callsubr
          -67 -737 rmoveto
          390 42 -328 hlineto
          326 430 rlineto
          37 -376 -42 315 vlineto
          -327 -430 rlineto
          -362 -3 rmoveto
          -144 -22 27 193 193 22 27 140 89 48 -22 -58 20 hvcurveto
          12 -34 1 -46 -48 vvcurveto
          -70 0 -45 -15 -45 vhcurveto
          47 callsubr
          endchar
        </CharString>
        <CharString name="uni01C7">
          238 111 hmoveto
          -12 callgsubr
          462 -643 -60 callsubr
        </CharString>
        <CharString name="uni01C8">
          146 628 47 callgsubr
          -517 -742 rmoveto
          -12 callgsubr
          420 -887 -59 callgsubr
        </CharString>
        <CharString name="uni01C9">
          -150 97 hmoveto
          59 callgsubr
          235 -68 26 callgsubr
          -97 -942 -59 callgsubr
        </CharString>
        <CharString name="uni01CA">
          438 577 hmoveto
          -69 callsubr
          611 -555 -60 callsubr
        </CharString>
        <CharString name="uni01CB">
          346 828 47 callgsubr
          -251 -742 rmoveto
          -69 callsubr
          569 -799 -59 callgsubr
        </CharString>
        <CharString name="uni01CC">
          212 694 47 callgsubr
          -235 -742 rmoveto
          -88 callgsubr
          138 -509 -59 callgsubr
        </CharString>
        <CharString name="uni01CD">
          53 315 -82 callgsubr
          384 -881 -102 callgsubr
        </CharString>
        <CharString name="uni01CD.ss01">
          85 331 -82 callgsubr
          338 -881 -104 callsubr
        </CharString>
        <CharString name="uni01CE">
          -57 259 603 -72 callsubr
          90 -745 -107 callsubr
        </CharString>
        <CharString name="uni01CF">
          -358 108 -82 callgsubr
          109 -881 -35 callgsubr
        </CharString>
        <CharString name="uni01D0">
          -389 93 603 -72 callsubr
          110 -737 -38 callgsubr
        </CharString>
        <CharString name="uni01D1">
          94 335 -82 callgsubr
          132 -889 -105 callsubr
          endchar
        </CharString>
        <CharString name="uni01D2">
          -50 262 603 -72 callsubr
          133 -745 -104 callgsubr
          endchar
        </CharString>
        <CharString name="uni01D3">
          85 331 -82 callgsubr
          338 -194 -101 callsubr
          endchar
        </CharString>
        <CharString name="uni01D4">
          -27 274 603 -72 callsubr
          299 -737 rmoveto
          -102 callsubr
          endchar
        </CharString>
        <CharString name="uni01D5">
          85 245 967 -43 callgsubr
          -4 -204 -32 callsubr
          182 -65 -32 callsubr
          140 -187 -101 callsubr
          endchar
        </CharString>
        <CharString name="uni01D6">
          -27 188 856 -43 callgsubr
          -4 -238 -80 callgsubr
          101 -730 rmoveto
          -102 callsubr
          endchar
        </CharString>
        <CharString name="uni01D7">
          85 336 876 -70 callgsubr
          -95 -72 -32 callsubr
          182 -65 -32 callsubr
          140 -187 -101 callsubr
          endchar
        </CharString>
        <CharString name="uni01D8">
          -27 281 764 -94 callgsubr
          -97 -105 -80 callgsubr
          101 -730 rmoveto
          -102 callsubr
          endchar
        </CharString>
        <CharString name="uni01D9">
          85 333 876 -2 callgsubr
          105 133 -24 callsubr
          -104 -99 104 rlineto
          -34 -5 hlineto
          14 -200 -32 callsubr
          182 -65 -32 callsubr
          140 -187 -101 callsubr
          endchar
        </CharString>
        <CharString name="uni01DA">
          -27 276 764 -72 callsubr
          14 -234 -80 callgsubr
          101 -730 rmoveto
          -102 callsubr
          endchar
        </CharString>
        <CharString name="uni01DB">
          85 354 876 32 callgsubr
          13 -200 -32 callsubr
          182 -65 -32 callsubr
          140 -187 -101 callsubr
          endchar
        </CharString>
        <CharString name="uni01DC">
          -27 298 764 -74 callgsubr
          12 -234 -80 callgsubr
          101 -730 rmoveto
          -102 callsubr
          endchar
        </CharString>
        <CharString name="uni01EA">
          95 504 -196 rmoveto
          9 6 0 1 11 hvcurveto
          71 callgsubr
          20 22 48 45 60 50 29 hvcurveto
          69 39 6 90 194 vvcurveto
          -28 callgsubr
          54 43 2 6 34 vhcurveto
          -42 -39 -27 -45 -42 vvcurveto
          -37 21 -33 60 vhcurveto
          -143 232 rmoveto
          -5 callsubr
          -302 72 callsubr
          hvcurveto
          endchar
        </CharString>
        <CharString name="uni01EB">
          -49 289 518 rmoveto
          -204 -13 -48 -216 -215 13 -47 204 41 34 2 5 26 hvcurveto
          -31 -36 -21 -46 -41 vvcurveto
          -40 22 -32 67 callgsubr
          -5 0 -4 hhcurveto
          -35 -12 19 25 47 42 65 34 27 hvcurveto
          45 35 4 69 125 vvcurveto
          216 -12 48 -205 vhcurveto
          -484 vmoveto
          -29 callgsubr
        </CharString>
        <CharString name="uni01F1">
          663 20 callgsubr
          hlineto
          637 -687 rmoveto
          -60 callgsubr
          -589 2 rmoveto
          599 142 vlineto
          238 17 -6 -293 -294 -14 -6 -241 hvcurveto
          endchar
        </CharString>
        <CharString name="uni01F2">
          560 111 hmoveto
          -50 callgsubr
          443 -44 rmoveto
          -66 callsubr
          endchar
        </CharString>
        <CharString name="uni01F3">
          463 -52 callgsubr
          377 8 rmoveto
          -66 callsubr
          -362 -3 rmoveto
          -62 callsubr
          47 callsubr
          endchar
        </CharString>
        <CharString name="uni01F4">
          51 317 748 -70 callgsubr
          218 -443 -93 callsubr
          endchar
        </CharString>
        <CharString name="uni01F4.ss01">
          67 324 748 -70 callgsubr
          46 -761 -93 callgsubr
          endchar
        </CharString>
        <CharString name="uni01F5">
          -35 275 603 -94 callgsubr
          3 -814 -100 callgsubr
        </CharString>
        <CharString name="uni0200">
          53 274 -83 callsubr
          160 -749 -102 callgsubr
        </CharString>
        <CharString name="uni0200.ss01">
          85 290 -83 callsubr
          114 -749 -104 callsubr
        </CharString>
        <CharString name="uni0201">
          -57 218 -77 callgsubr
          -134 -612 -107 callsubr
        </CharString>
        <CharString name="uni0202">
          53 211 752 -87 callgsubr
          382 -752 -102 callgsubr
        </CharString>
        <CharString name="uni0202.ss01">
          85 227 752 -87 callgsubr
          336 -752 -104 callsubr
        </CharString>
        <CharString name="uni0203">
          -57 155 607 -87 callgsubr
          88 -615 -107 callsubr
        </CharString>
        <CharString name="uni0204">
          -30 259 -83 callsubr
          -307 -749 rmoveto
          -90 callgsubr
          endchar
        </CharString>
        <CharString name="uni0205">
          -68 212 -77 callgsubr
          117 -348 -105 callgsubr
          endchar
        </CharString>
        <CharString name="uni0206">
          -30 196 752 -87 callgsubr
          -85 -752 rmoveto
          -90 callgsubr
          endchar
        </CharString>
        <CharString name="uni0207">
          -68 280 715 -29 callsubr
          208 -459 -105 callgsubr
          endchar
        </CharString>
        <CharString name="uni0208">
          -358 67 -83 callsubr
          -115 -749 -35 callgsubr
        </CharString>
        <CharString name="uni0209">
          -389 52 -77 callgsubr
          -114 -604 -38 callgsubr
        </CharString>
        <CharString name="uni020A">
          -358 4 752 -87 callgsubr
          107 -752 -35 callgsubr
        </CharString>
        <CharString name="uni020B">
          -389 -11 607 -87 callgsubr
          108 -607 -38 callgsubr
        </CharString>
        <CharString name="uni020C">
          94 294 -83 callsubr
          -92 -757 -105 callsubr
          endchar
        </CharString>
        <CharString name="uni020D">
          -50 221 -77 callgsubr
          -91 -612 -104 callgsubr
          endchar
        </CharString>
        <CharString name="uni020E">
          94 231 752 -87 callgsubr
          130 -760 -105 callsubr
          endchar
        </CharString>
        <CharString name="uni020F">
          -50 158 607 -87 callgsubr
          131 -615 -104 callgsubr
          endchar
        </CharString>
        <CharString name="uni0210">
          54 274 -83 callsubr
          173 -749 rmoveto
          -89 callsubr
          endchar
        </CharString>
        <CharString name="uni0210.ss01">
          61 277 -83 callsubr
          156 -578 -92 callgsubr
          endchar
        </CharString>
        <CharString name="uni0211">
          -281 106 -77 callgsubr
          -168 -604 rmoveto
          -62 callgsubr
          endchar
        </CharString>
        <CharString name="uni0212">
          54 342 860 -29 callsubr
          264 -860 rmoveto
          -89 callsubr
          endchar
        </CharString>
        <CharString name="uni0212.ss01">
          61 345 860 -29 callsubr
          247 -689 -92 callgsubr
          endchar
        </CharString>
        <CharString name="uni0213">
          -281 43 607 -87 callgsubr
          54 -607 rmoveto
          -62 callgsubr
          endchar
        </CharString>
        <CharString name="uni0214">
          85 290 -83 callsubr
          114 -62 -101 callsubr
          endchar
        </CharString>
        <CharString name="uni0215">
          -27 233 -77 callgsubr
          75 -604 rmoveto
          -102 callsubr
          endchar
        </CharString>
        <CharString name="uni0216">
          85 227 752 -87 callgsubr
          336 -65 -101 callsubr
          endchar
        </CharString>
        <CharString name="uni0217">
          -27 170 607 -87 callgsubr
          297 -607 rmoveto
          -102 callsubr
          endchar
        </CharString>
        <CharString name="uni021A">
          -48 267 hmoveto
          23 callsubr
          -19 -853 -84 callgsubr
        </CharString>
        <CharString name="uni021B">
          -292 136 hmoveto
          46 468 -8 callsubr
          hlineto
          -20 -679 -84 callgsubr
        </CharString>
        <CharString name="uni0232">
          -28 186 839 -43 callgsubr
          90 -885 rmoveto
          -78 callsubr
          endchar
        </CharString>
        <CharString name="uni0232.loclGUA">
          -30 412 885 68 callsubr
          94 -152 -92 callsubr
          endchar
        </CharString>
        <CharString name="uni0233">
          -27 186 695 -43 callgsubr
          97 -947 -98 callsubr
          endchar
        </CharString>
        <CharString name="uni0233.loclGUA">
          -107 387 741 68 callsubr
          102 -186 -78 callgsubr
          endchar
        </CharString>
        <CharString name="uni0237">
          -389 -4 -200 31 callsubr
        </CharString>
        <CharString name="uni0259">
          -68 269 517 rmoveto
          -64 -74 -5 -8 -39 hvcurveto
          -42 vlineto
          8 46 70 6 53 hhcurveto
          164 17 -39 -167 hvcurveto
          -370 -17 hlineto
          -200 10 -61 185 211 10 66 197 207 -27 55 -192 vhcurveto
          1 -485 rmoveto
          -120 -33 19 162 hvcurveto
          18 325 vlineto
          -171 -1 -17 -28 -154 hhcurveto
          endchar
        </CharString>
        <CharString name="uni0272">
          -26 -4 -200 rmoveto
          103 44 6 101 hvcurveto
          358 vlineto
          119 1 91 164 128 23 -21 -145 vhcurveto
          -309 46 320 vlineto
          64 callgsubr
          -123 -39 -41 -4 callgsubr
          80 rlineto
          -38 -615 hlineto
          -44 -9 -12 -92 vhcurveto
          endchar
        </CharString>
        <CharString name="uni02BC">
          -523 5 594 29 callgsubr
          endchar
        </CharString>
        <CharString name="uni02C9">
          -272 64 695 -3 callsubr
        </CharString>
        <CharString name="uni0302">
          -287 -41 callsubr
          endchar
        </CharString>
        <CharString name="uni0302.case">
          -287 748 -75 callsubr
          endchar
        </CharString>
        <CharString name="uni03020300">
          -46 746 -74 callgsubr
          -115 -277 -89 callgsubr
          endchar
        </CharString>
        <CharString name="uni03020300.case">
          -46 891 -74 callgsubr
          -115 -277 -89 callgsubr
          endchar
        </CharString>
        <CharString name="uni03020301">
          -82 746 -94 callgsubr
          -205 -148 -89 callgsubr
          endchar
        </CharString>
        <CharString name="uni03020301.case">
          -82 891 -94 callgsubr
          -205 -148 -89 callgsubr
          endchar
        </CharString>
        <CharString name="uni03020303">
          20 915 rmoveto
          -32 hlineto
          -44 -4 -16 -30 -31 -33 -97 callgsubr
          38 -64 callgsubr
          -307 -312 -89 callgsubr
          endchar
        </CharString>
        <CharString name="uni03020303.case">
          20 1060 rmoveto
          -32 hlineto
          -44 -4 -16 -30 -31 -33 -97 callgsubr
          38 -64 callgsubr
          -307 -312 -89 callgsubr
          endchar
        </CharString>
        <CharString name="uni03020309">
          -109 744 -98 callgsubr
          -178 -152 -89 callgsubr
          endchar
        </CharString>
        <CharString name="uni03020309.case">
          -109 889 -98 callgsubr
          -178 -152 -89 callgsubr
          endchar
        </CharString>
        <CharString name="uni0304">
          -292 695 -3 callsubr
        </CharString>
        <CharString name="uni0304.case">
          -292 840 -3 callsubr
        </CharString>
        <CharString name="uni0306">
          -20 742 -30 callsubr
        </CharString>
        <CharString name="uni0306.case">
          -20 887 -30 callsubr
        </CharString>
        <CharString name="uni03060300">
          -153 776 -74 callgsubr
          258 -168 rmoveto
          -35 hlineto
          -71 -2 -37 -93 -94 callsubr
          endchar
        </CharString>
        <CharString name="uni03060300.case">
          -153 921 -74 callgsubr
          258 -168 rmoveto
          -35 hlineto
          -71 -2 -37 -93 -94 callsubr
          endchar
        </CharString>
        <CharString name="uni03060301">
          -172 776 -94 callgsubr
          151 -39 rmoveto
          -35 hlineto
          -71 -2 -37 -93 -94 callsubr
          endchar
        </CharString>
        <CharString name="uni03060301.case">
          -172 921 -94 callgsubr
          151 -39 rmoveto
          -35 hlineto
          -71 -2 -37 -93 -94 callsubr
          endchar
        </CharString>
        <CharString name="uni03060303">
          24 915 rmoveto
          -32 hlineto
          -44 -4 -16 -30 -31 -33 -97 callgsubr
          38 -64 callgsubr
          -45 -173 rmoveto
          -35 hlineto
          -71 -2 -37 -93 -94 callsubr
          endchar
        </CharString>
        <CharString name="uni03060303.case">
          24 1060 rmoveto
          -32 hlineto
          -44 -4 -16 -30 -31 -33 -97 callgsubr
          38 -64 callgsubr
          -45 -173 rmoveto
          -35 hlineto
          -71 -2 -37 -93 -94 callsubr
          endchar
        </CharString>
        <CharString name="uni03060309">
          -193 742 -98 callgsubr
          172 -11 rmoveto
          -35 hlineto
          -71 -2 -37 -93 -94 callsubr
          endchar
        </CharString>
        <CharString name="uni03060309.case">
          -193 887 -98 callgsubr
          172 -11 rmoveto
          -35 hlineto
          -71 -2 -37 -93 -94 callsubr
          endchar
        </CharString>
        <CharString name="uni0307">
          -71 15 callsubr
          endchar
        </CharString>
        <CharString name="uni0307.case">
          -71 809 rmoveto
          51 66 -51 hlineto
          endchar
        </CharString>
        <CharString name="uni0308">
          -253 -44 callsubr
          endchar
        </CharString>
        <CharString name="uni0308.case">
          -253 809 46 callgsubr
        </CharString>
        <CharString name="uni030A">
          -145 609 -71 callsubr
          endchar
        </CharString>
        <CharString name="uni030A.case">
          -145 724 -71 callsubr
          endchar
        </CharString>
        <CharString name="uni030B">
          -370 13 callsubr
          125 132 rlineto
          5 -53 vlineto
          -105 -132 rlineto
          endchar
        </CharString>
        <CharString name="uni030B.case">
          -370 749 -49 callgsubr
          125 132 rlineto
          5 -53 vlineto
          -105 -132 rlineto
          endchar
        </CharString>
        <CharString name="uni030C">
          -181 603 -52 callsubr
          endchar
        </CharString>
        <CharString name="uni030C.case">
          -181 748 -52 callsubr
          endchar
        </CharString>
        <CharString name="uni030F">
          -212 -77 callgsubr
          endchar
        </CharString>
        <CharString name="uni030F.case">
          -212 749 -76 callgsubr
          endchar
        </CharString>
        <CharString name="uni0311">
          -281 608 -87 callgsubr
          endchar
        </CharString>
        <CharString name="uni0311.case">
          -281 753 -87 callgsubr
          endchar
        </CharString>
        <CharString name="uni0312">
          -300 755 30 callsubr
          endchar
        </CharString>
        <CharString name="uni031B">
          -183 510 rmoveto
          -60 -31 60 hlineto
          74 17 21 80 hvcurveto
          -13 callsubr
          endchar
        </CharString>
        <CharString name="uni0326">
          -150 -211 -84 callgsubr
        </CharString>
        <CharString name="uni0327">
          -113 35 callgsubr
        </CharString>
        <CharString name="uni0328">
          -195 vmoveto
          -16 callsubr
        </CharString>
        <CharString name="uni0335">
          -283 326 rmoveto
          241 45 -241 hlineto
          endchar
        </CharString>
        <CharString name="uni0336">
          -112 491 rmoveto
          45 -513 -45 vlineto
          endchar
        </CharString>
        <CharString name="uni0394">
          54 37 hmoveto
          608 hlineto
          -278 688 rlineto
          -52 hlineto
          28 -60 rmoveto
          235 -584 rlineto
          -475 hlineto
          235 584 rlineto
          endchar
        </CharString>
        <CharString name="uni03A9">
          95 53 callgsubr
          263 18 30 209 208 18 -30 -263 -233 -15 -64 -152 -23 vhcurveto
          -39 213 27 callgsubr
          267 -16 69 -258 -259 -16 -69 -267 21 callsubr
        </CharString>
        <CharString name="uni03BC">
          -26 459 510 rmoveto
          -264 vlineto
          -7 callgsubr
          309 -46 -700 14 callsubr
          510 hlineto
          endchar
        </CharString>
        <CharString name="uni1E0C">
          62 111 hmoveto
          -50 callgsubr
          16 -179 -79 callgsubr
        </CharString>
        <CharString name="uni1E0D">
          -35 -52 callgsubr
          15 42 rmoveto
          -62 callsubr
          47 callsubr
          -17 -169 -79 callgsubr
        </CharString>
        <CharString name="uni1E24">
          107 575 hmoveto
          31 callgsubr
          -236 -460 -79 callgsubr
        </CharString>
        <CharString name="uni1E25">
          -27 459 hmoveto
          -18 callsubr
          -187 -444 -79 callgsubr
        </CharString>
        <CharString name="uni1E44">
          107 342 6 callsubr
          235 -874 rmoveto
          -69 callsubr
          endchar
        </CharString>
        <CharString name="uni1E45">
          -27 275 15 callsubr
          184 -730 rmoveto
          -88 callgsubr
          endchar
        </CharString>
        <CharString name="uni1E5A">
          54 606 hmoveto
          -89 callsubr
          -85 -468 -79 callgsubr
        </CharString>
        <CharString name="uni1E5A.ss01">
          61 592 171 -92 callgsubr
          -83 -472 -79 callgsubr
        </CharString>
        <CharString name="uni1E5B">
          -281 97 hmoveto
          -62 callgsubr
          -6 -644 -79 callgsubr
        </CharString>
        <CharString name="uni1E62">
          4 332 -8 -99 callgsubr
          -44 -127 -79 callgsubr
        </CharString>
        <CharString name="uni1E63">
          -129 254 -8 -95 callgsubr
          -33 -127 -79 callgsubr
        </CharString>
        <CharString name="uni1E6C">
          -48 267 hmoveto
          23 callsubr
          -5 -777 -79 callgsubr
        </CharString>
        <CharString name="uni1E6D">
          -292 136 hmoveto
          46 468 -8 callsubr
          hlineto
          -6 -603 -79 callgsubr
        </CharString>
        <CharString name="uni1E92">
          -28 58 hmoveto
          -60 callgsubr
          214 -177 -79 callgsubr
        </CharString>
        <CharString name="uni1E93">
          -130 54 hmoveto
          -66 callsubr
          166 -172 -79 callgsubr
        </CharString>
        <CharString name="uni1E9E">
          87 446 367 rmoveto
          -53 hlineto
          186 248 rlineto
          37 vlineto
          23 -60 -93 21 -104 hhcurveto
          -182 -38 -58 -294 hvcurveto
          -344 47 344 vlineto
          272 17 36 166 71 55 -8 -22 71 vhcurveto
          -198 -263 rlineto
          -32 117 vlineto
          98 39 -42 -103 -110 -43 -36 -128 -44 -66 5 7 -55 hvcurveto
          -41 vlineto
          -9 44 68 -6 50 hhcurveto
          162 60 61 127 133 -62 54 -125 hvcurveto
          endchar
        </CharString>
        <CharString name="uni1EA0">
          53 593 hmoveto
          -103 callgsubr
          -25 -761 -79 callgsubr
        </CharString>
        <CharString name="uni1EA0.ss01">
          85 563 hmoveto
          -106 callsubr
          -234 -558 -79 callgsubr
        </CharString>
        <CharString name="uni1EA1">
          -57 243 -8 -107 callgsubr
          8 -168 -79 callgsubr
        </CharString>
        <CharString name="uni1EA2">
          53 297 728 -96 callsubr
          296 -738 -102 callgsubr
        </CharString>
        <CharString name="uni1EA2.ss01">
          85 313 728 -96 callsubr
          250 -738 -104 callsubr
        </CharString>
        <CharString name="uni1EA3">
          -57 241 605 -98 callgsubr
          2 -624 -107 callsubr
        </CharString>
        <CharString name="uni1EA4">
          53 410 890 57 callsubr
          5 -56 vlineto
          -104 -63 callgsubr
          -205 -148 -96 callgsubr
          388 -752 -102 callgsubr
        </CharString>
        <CharString name="uni1EA4.ss01">
          85 426 890 57 callsubr
          5 -56 vlineto
          -104 -63 callgsubr
          -205 -148 -96 callgsubr
          342 -752 -104 callsubr
        </CharString>
        <CharString name="uni1EA5">
          -57 354 745 57 callsubr
          5 -56 vlineto
          -104 -63 callgsubr
          -205 -148 -96 callgsubr
          94 -615 -107 callsubr
        </CharString>
        <CharString name="uni1EA6">
          53 443 890 rmoveto
          35 5 hlineto
          -104 24 callsubr
          -115 -277 -96 callgsubr
          390 -752 -102 callgsubr
        </CharString>
        <CharString name="uni1EA6.ss01">
          85 459 890 rmoveto
          35 5 hlineto
          -104 24 callsubr
          -115 -277 -96 callgsubr
          344 -752 -104 callsubr
        </CharString>
        <CharString name="uni1EA7">
          -57 387 745 rmoveto
          35 5 hlineto
          -104 24 callsubr
          -115 -277 -96 callgsubr
          96 -615 -107 callsubr
        </CharString>
        <CharString name="uni1EA8">
          53 387 -86 callsubr
          384 -752 -102 callgsubr
        </CharString>
        <CharString name="uni1EA8.ss01">
          85 403 -86 callsubr
          338 -752 -104 callsubr
        </CharString>
        <CharString name="uni1EA9">
          -57 331 -53 callgsubr
          90 -615 -107 callsubr
        </CharString>
        <CharString name="uni1EAA">
          53 514 1058 rmoveto
          -32 hlineto
          -43 -91 callgsubr
          71 hvcurveto
          -307 -311 -96 callgsubr
          386 -752 -102 callgsubr
        </CharString>
        <CharString name="uni1EAA.ss01">
          85 530 1058 rmoveto
          -32 hlineto
          -43 -91 callgsubr
          71 hvcurveto
          -307 -311 -96 callgsubr
          340 -752 -104 callsubr
        </CharString>
        <CharString name="uni1EAB">
          -57 458 914 rmoveto
          -32 hlineto
          -44 -91 callgsubr
          72 hvcurveto
          -307 -312 -96 callgsubr
          92 -615 -107 callsubr
        </CharString>
        <CharString name="uni1EAC">
          53 209 -84 callsubr
          384 -753 rmoveto
          -103 callgsubr
          -25 -761 -79 callgsubr
        </CharString>
        <CharString name="uni1EAC.ss01">
          85 225 -84 callsubr
          338 -753 rmoveto
          -106 callsubr
          -234 -558 -79 callgsubr
        </CharString>
        <CharString name="uni1EAD">
          -57 153 603 -89 callgsubr
          90 -616 -107 callgsubr
          8 -168 -79 callgsubr
        </CharString>
        <CharString name="uni1EAE">
          53 317 920 57 callsubr
          4 -55 50 callgsubr
          151 -39 -20 callsubr
          -92 -94 callsubr
          125 -66 callgsubr
        </CharString>
        <CharString name="uni1EAE.ss01">
          85 333 920 57 callsubr
          4 -55 50 callgsubr
          151 -39 -20 callsubr
          -92 -94 callsubr
          79 -68 callgsubr
        </CharString>
        <CharString name="uni1EAF">
          -57 259 775 57 callsubr
          5 -55 59 callsubr
          151 -39 -20 callsubr
          -92 -94 callsubr
          -167 -749 -107 callsubr
        </CharString>
        <CharString name="uni1EB0">
          53 340 920 rmoveto
          34 5 hlineto
          -104 72 callgsubr
          -4 hlineto
          258 -168 -20 callsubr
          -92 -94 callsubr
          121 -66 callgsubr
        </CharString>
        <CharString name="uni1EB0.ss01">
          85 356 920 rmoveto
          34 5 hlineto
          -104 72 callgsubr
          -4 hlineto
          258 -168 -20 callsubr
          -92 -94 callsubr
          75 -68 callgsubr
        </CharString>
        <CharString name="uni1EB1">
          -57 284 775 rmoveto
          34 5 hlineto
          -104 24 callsubr
          258 -168 -20 callsubr
          -92 -94 callsubr
          -173 -749 -107 callsubr
        </CharString>
        <CharString name="uni1EB2">
          53 299 887 rmoveto
          33 hlineto
          24 -44 callgsubr
          28 8 rlineto
          51 14 7 17 40 10 callgsubr
          -6 -52 -61 callgsubr
          -31 vvcurveto
          172 -12 -20 callsubr
          -92 -94 callsubr
          122 -66 callgsubr
        </CharString>
        <CharString name="uni1EB2.ss01">
          85 315 868 -96 callsubr
          172 8 -83 callgsubr
          76 -68 callgsubr
        </CharString>
        <CharString name="uni1EB3">
          -57 243 742 rmoveto
          33 hlineto
          25 -44 callgsubr
          28 8 rlineto
          51 14 7 17 39 10 callgsubr
          -5 -57 callgsubr
          172 -12 -20 callsubr
          -92 -94 callsubr
          -172 -749 -107 callsubr
        </CharString>
        <CharString name="uni1EB4">
          53 514 1058 rmoveto
          -32 hlineto
          -43 -91 callgsubr
          71 hvcurveto
          -45 -172 -20 callsubr
          -92 -94 callsubr
          124 -66 callgsubr
        </CharString>
        <CharString name="uni1EB4.ss01">
          85 530 1058 rmoveto
          -32 hlineto
          -43 -91 callgsubr
          71 hvcurveto
          -45 -172 -20 callsubr
          -92 -94 callsubr
          78 -68 callgsubr
        </CharString>
        <CharString name="uni1EB5">
          -57 458 914 rmoveto
          -32 hlineto
          -44 -91 callgsubr
          72 hvcurveto
          -45 -173 -20 callsubr
          -92 -94 callsubr
          -170 -749 -107 callsubr
        </CharString>
        <CharString name="uni1EB6">
          -48 callsubr
          -25 -761 -79 callgsubr
        </CharString>
        <CharString name="uni1EB6.ss01">
          -53 callsubr
          -234 -558 -79 callgsubr
        </CharString>
        <CharString name="uni1EB7">
          -57 415 742 rmoveto
          -35 hlineto
          -71 -2 -37 -93 -94 callsubr
          -172 -750 -107 callgsubr
          8 -168 -79 callgsubr
        </CharString>
        <CharString name="uni1EB8">
          -30 111 hmoveto
          -90 callgsubr
          187 -822 -79 callgsubr
        </CharString>
        <CharString name="uni1EB9">
          -68 488 256 -105 callgsubr
          -39 -612 -79 callgsubr
        </CharString>
        <CharString name="uni1EBA">
          -30 282 728 -96 callsubr
          -171 -738 rmoveto
          -90 callgsubr
          endchar
        </CharString>
        <CharString name="uni1EBB">
          -68 361 719 -73 callsubr
          127 -463 -105 callgsubr
          endchar
        </CharString>
        <CharString name="uni1EBC">
          -30 499 -85 callsubr
          -388 -886 rmoveto
          -90 callgsubr
          endchar
        </CharString>
        <CharString name="uni1EBD">
          -68 172 691 -67 callgsubr
          316 -435 -105 callgsubr
          endchar
        </CharString>
        <CharString name="uni1EBE">
          -30 395 890 57 callsubr
          5 -56 vlineto
          -104 -63 callgsubr
          -205 -148 -96 callgsubr
          -79 -752 rmoveto
          -90 callgsubr
          endchar
        </CharString>
        <CharString name="uni1EBF">
          -68 452 884 rmoveto
          -104 -63 callgsubr
          -5 35 vlineto
          125 -64 callsubr
          vlineto
          -232 -177 -15 callgsubr
          116 -45 callgsubr
        </CharString>
        <CharString name="uni1EC0">
          -30 428 890 rmoveto
          35 5 hlineto
          -104 24 callsubr
          -115 -277 -96 callgsubr
          -77 -752 rmoveto
          -90 callgsubr
          endchar
        </CharString>
        <CharString name="uni1EC1">
          -68 416 745 rmoveto
          5 vlineto
          -104 24 callsubr
          125 -63 callgsubr
          -107 -38 -15 callgsubr
          313 -346 -105 callgsubr
          endchar
        </CharString>
        <CharString name="uni1EC2">
          -30 372 -86 callsubr
          -83 -752 rmoveto
          -90 callgsubr
          endchar
        </CharString>
        <CharString name="uni1EC3">
          -68 450 857 rmoveto
          -27 -6 -5 -51 -14 vhcurveto
          -26 -6 rlineto
          -32 -10 -10 -8 -32 vvcurveto
          -11 33 vlineto
          25 2 callgsubr
          39 vvcurveto
          61 -37 8 -89 -31 -48 -2 -4 -32 vhcurveto
          -31 -79 callsubr
          26 1 -42 hvcurveto
          -170 -150 -15 callgsubr
          112 -45 callgsubr
        </CharString>
        <CharString name="uni1EC4">
          -30 499 1058 rmoveto
          -32 hlineto
          -43 -91 callgsubr
          71 hvcurveto
          -307 -311 -96 callgsubr
          -81 -752 rmoveto
          -90 callgsubr
          endchar
        </CharString>
        <CharString name="uni1EC5">
          -68 172 863 rmoveto
          31 34 -11 -11 31 hvcurveto
          -13 40 -40 callgsubr
          -32 hlineto
          -44 -41 callgsubr
          -39 -39 13 -40 hhcurveto
          -56 -9 -28 -72 hvcurveto
          32 hlineto
          44 4 16 30 vhcurveto
          79 -122 rmoveto
          -37 callsubr
          -5 34 vlineto
          99 105 -77 callsubr
          183 -485 -105 callgsubr
          endchar
        </CharString>
        <CharString name="uni1EC6">
          -30 194 -84 callsubr
          -83 -753 rmoveto
          -90 callgsubr
          187 -822 -79 callgsubr
        </CharString>
        <CharString name="uni1EC7">
          -68 280 708 rmoveto
          100 -105 rlineto
          33 5 hlineto
          -105 -65 callgsubr
          -5 34 vlineto
          307 -347 -105 callgsubr
          -39 -612 -79 callgsubr
        </CharString>
        <CharString name="uni1EC8">
          -358 90 728 -96 callsubr
          21 -738 -35 callgsubr
        </CharString>
        <CharString name="uni1EC9">
          -389 75 605 -98 callgsubr
          22 -616 -38 callgsubr
        </CharString>
        <CharString name="uni1ECA">
          -358 111 hmoveto
          42 callgsubr
          hlineto
          -5 -822 -79 callgsubr
        </CharString>
        <CharString name="uni1ECB">
          -389 93 47 callgsubr
          4 -742 -35 callsubr
          -33 -644 -79 callgsubr
        </CharString>
        <CharString name="uni1ECC">
          94 361 -8 -105 callsubr
          -28 -171 -79 callgsubr
        </CharString>
        <CharString name="uni1ECD">
          -50 289 -8 -104 callgsubr
          -29 -169 -79 callgsubr
        </CharString>
        <CharString name="uni1ECE">
          94 317 728 -96 callsubr
          44 -746 -105 callsubr
          endchar
        </CharString>
        <CharString name="uni1ECF">
          -50 244 605 -98 callgsubr
          45 -624 -104 callgsubr
          endchar
        </CharString>
        <CharString name="uni1ED0">
          94 430 890 57 callsubr
          5 -56 vlineto
          -104 -63 callgsubr
          -205 -148 -96 callgsubr
          136 -760 -105 callsubr
          endchar
        </CharString>
        <CharString name="uni1ED1">
          -50 357 745 57 callsubr
          5 -56 vlineto
          -104 -63 callgsubr
          -205 -148 -96 callgsubr
          137 -615 -104 callgsubr
          endchar
        </CharString>
        <CharString name="uni1ED2">
          94 463 890 rmoveto
          35 5 hlineto
          -104 24 callsubr
          -115 -277 -96 callgsubr
          138 -760 -105 callsubr
          endchar
        </CharString>
        <CharString name="uni1ED3">
          -50 390 745 rmoveto
          35 5 hlineto
          -104 24 callsubr
          -115 -277 -96 callgsubr
          139 -615 -104 callgsubr
          endchar
        </CharString>
        <CharString name="uni1ED4">
          94 407 -86 callsubr
          132 -760 -105 callsubr
          endchar
        </CharString>
        <CharString name="uni1ED5">
          -50 334 -53 callgsubr
          133 -615 -104 callgsubr
          endchar
        </CharString>
        <CharString name="uni1ED6">
          94 534 1058 rmoveto
          -32 hlineto
          -43 -91 callgsubr
          71 hvcurveto
          -307 -311 -96 callgsubr
          134 -760 -105 callsubr
          endchar
        </CharString>
        <CharString name="uni1ED7">
          -50 461 914 rmoveto
          -32 hlineto
          -44 -91 callgsubr
          72 hvcurveto
          -307 -312 -96 callgsubr
          135 -615 -104 callgsubr
          endchar
        </CharString>
        <CharString name="uni1ED8">
          94 229 -84 callsubr
          132 -761 -105 callsubr
          -28 -171 -79 callgsubr
        </CharString>
        <CharString name="uni1ED9">
          -50 156 603 -89 callgsubr
          133 -616 -104 callgsubr
          -29 -169 -79 callgsubr
        </CharString>
        <CharString name="uni1EDA">
          93 498 880 -33 callgsubr
          267 10 -90 callsubr
          endchar
        </CharString>
        <CharString name="uni1EDB">
          -51 427 736 -25 callsubr
          206 4 -91 callsubr
          endchar
        </CharString>
        <CharString name="uni1EDC">
          93 390 747 3 callsubr
          284 10 -90 callsubr
          endchar
        </CharString>
        <CharString name="uni1EDD">
          -51 319 38 callgsubr
          223 4 -91 callsubr
          endchar
        </CharString>
        <CharString name="uni1EDE">
          93 442 840 -61 callsubr
          197 -83 -90 callsubr
          endchar
        </CharString>
        <CharString name="uni1EDF">
          -51 370 718 -73 callsubr
          137 -112 -91 callsubr
          endchar
        </CharString>
        <CharString name="uni1EE0">
          93 253 834 -58 callgsubr
          386 -77 -90 callsubr
          endchar
        </CharString>
        <CharString name="uni1EE1">
          -51 181 690 -67 callgsubr
          326 -84 -91 callsubr
          endchar
        </CharString>
        <CharString name="uni1EE2">
          93 639 757 -90 callsubr
          -255 -478 -79 callgsubr
        </CharString>
        <CharString name="uni1EE3">
          -51 507 606 -91 callsubr
          -28 -169 -79 callgsubr
        </CharString>
        <CharString name="uni1EE4">
          85 563 687 -101 callsubr
          -282 -822 -79 callgsubr
        </CharString>
        <CharString name="uni1EE5">
          -27 467 hmoveto
          -102 callsubr
          -204 -215 -79 callgsubr
        </CharString>
        <CharString name="uni1EE6">
          85 313 728 -96 callsubr
          250 -51 -101 callsubr
          endchar
        </CharString>
        <CharString name="uni1EE7">
          -27 256 605 -98 callgsubr
          211 -616 rmoveto
          -102 callsubr
          endchar
        </CharString>
        <CharString name="uni1EE8">
          84 494 880 -33 callgsubr
          314 37 -82 callsubr
          endchar
        </CharString>
        <CharString name="uni1EE9">
          -28 439 736 -25 callsubr
          257 4 -85 callgsubr
          endchar
        </CharString>
        <CharString name="uni1EEA">
          84 386 747 3 callsubr
          331 37 -82 callsubr
          endchar
        </CharString>
        <CharString name="uni1EEB">
          -28 331 38 callgsubr
          274 4 -85 callgsubr
          endchar
        </CharString>
        <CharString name="uni1EEC">
          84 438 840 -61 callsubr
          244 -56 -82 callsubr
          endchar
        </CharString>
        <CharString name="uni1EED">
          -28 382 718 -73 callsubr
          188 -112 -85 callgsubr
          endchar
        </CharString>
        <CharString name="uni1EEE">
          84 249 834 -58 callgsubr
          433 -50 -82 callsubr
          endchar
        </CharString>
        <CharString name="uni1EEF">
          -28 193 690 -67 callgsubr
          377 -84 -85 callgsubr
          endchar
        </CharString>
        <CharString name="uni1EF0">
          84 682 784 -82 callsubr
          -393 -919 -79 callgsubr
        </CharString>
        <CharString name="uni1EF1">
          -28 570 606 -85 callgsubr
          -349 -741 -79 callgsubr
        </CharString>
        <CharString name="uni1EF4">
          -28 276 hmoveto
          -78 callsubr
          -4 -411 -79 callgsubr
        </CharString>
        <CharString name="uni1EF4.loclGUA">
          -30 506 687 -92 callsubr
          -284 -822 -79 callgsubr
        </CharString>
        <CharString name="uni1EF5">
          -27 283 -206 -98 callsubr
          -29 -135 -79 callgsubr
        </CharString>
        <CharString name="uni1EF5.loclGUA">
          -107 489 509 -78 callgsubr
          23 -135 -79 callgsubr
        </CharString>
        <CharString name="uni1EF6">
          -28 256 728 -96 callsubr
          20 -738 rmoveto
          -78 callsubr
          endchar
        </CharString>
        <CharString name="uni1EF6.loclGUA">
          -30 380 841 -61 callsubr
          126 -154 -92 callsubr
          endchar
        </CharString>
        <CharString name="uni1EF7">
          -27 256 605 -98 callgsubr
          27 -822 -98 callsubr
          endchar
        </CharString>
        <CharString name="uni1EF7.loclGUA">
          -107 355 719 -73 callsubr
          134 -210 -78 callgsubr
          endchar
        </CharString>
        <CharString name="uni1EF8">
          -28 473 -85 callsubr
          -197 -886 rmoveto
          -78 callsubr
          endchar
        </CharString>
        <CharString name="uni1EF8.loclGUA">
          -30 191 835 -58 callgsubr
          315 -148 -92 callsubr
          endchar
        </CharString>
        <CharString name="uni1EF9">
          -27 473 742 rmoveto
          -32 hlineto
          -44 -4 -16 -30 -31 -33 -97 callgsubr
          38 -64 callgsubr
          -190 -948 -98 callsubr
          endchar
        </CharString>
        <CharString name="uni1EF9.loclGUA">
          -107 166 691 -67 callgsubr
          323 -182 -78 callgsubr
          endchar
        </CharString>
        <CharString name="uni2002">
          -328 endchar
        </CharString>
        <CharString name="uni20B2">
          -15 331 363 rmoveto
          209 1 vlineto
          41 71 -7 -9 58 hvcurveto
          42 vlineto
          -44 9 -70 8 -57 1 rrcurveto
          80 -41 -80 vlineto
          -167 -4 -36 -42 -226 vvcurveto
          -229 34 -40 169 -3 vhcurveto
          -80 41 80 vlineto
          184 3 10 43 180 vvcurveto
          65 vlineto
          -391 -19 rmoveto
          205 27 21 129 2 vhcurveto
          -456 vlineto
          -138 3 -18 33 192 vvcurveto
          344 -48 rmoveto
          -155 -8 -23 -139 -2 vhcurveto
          203 147 vlineto
          endchar
        </CharString>
        <CharString name="uni2113">
          -164 259 38 rmoveto
          -58 -29 37 118 -10 hvcurveto
          151 79 85 173 122 vvcurveto
          78 -39 50 -81 -132 -37 -137 -236 -38 1 -34 2 -31 vhcurveto
          -22 -9 -24 -6 -24 -4 rrcurveto
          -45 vlineto
          26 4 25 6 23 8 rrcurveto
          -129 15 42 -51 82 hhcurveto
          53 46 26 39 47 hvcurveto
          53 vlineto
          -50 -59 -41 -23 -42 hhcurveto
          18 612 rmoveto
          52 23 -29 -55 -105 -69 -145 -124 -74 hvcurveto
          -2 24 0 27 30 vvcurveto
          208 24 119 96 vhcurveto
          endchar
        </CharString>
        <CharString name="uni2116">
          439 856 397 rmoveto
          117 7 28 120 60 callsubr
          -120 9 -28 116 hvcurveto
          -279 -397 rmoveto
          -69 callsubr
          694 -167 rmoveto
          -85 0 18 95 96 0 19 85 85 0 -19 -96 -95 0 -18 -85 hvcurveto
          -124 -200 rmoveto
          239 41 -239 hlineto
          endchar
        </CharString>
        <CharString name="uni2126">
          94 53 callgsubr
          262 18 30 209 207 18 -30 -262 -233 -15 -64 -151 -23 vhcurveto
          -39 212 27 callgsubr
          266 -16 69 -257 -259 -16 -69 -266 21 callsubr
        </CharString>
        <CharString name="uni2153">
          153 -43 callsubr
          -46 -637 rmoveto
          -12 callsubr
          -48 hlineto
          -60 -649 rmoveto
          -38 vlineto
          -5 34 45 -4 32 hhcurveto
          119 22 39 69 50 -23 25 -28 12 hvcurveto
          4 vlineto
          27 15 19 25 44 vvcurveto
          73 -31 30 -104 -31 -45 -5 -5 -34 vhcurveto
          -37 17 callgsubr
          -21 -51 -58 -37 -9 -63 -21 -35 3 5 -54 hvcurveto
          endchar
        </CharString>
        <CharString name="uni2154">
          228 309 359 rmoveto
          -213 20 hlineto
          52 callsubr
          22 -1 callgsubr
          -35 -15 -40 -16 -37 -16 rrcurveto
          -55 -23 0 -17 -81 vvcurveto
          -42 251 vlineto
          324 369 rmoveto
          -448 -688 rlineto
          -12 callsubr
          47 -501 rmoveto
          4 vlineto
          28 15 19 25 44 vvcurveto
          73 -32 30 -104 -30 -46 -5 -5 -33 vhcurveto
          -37 vlineto
          4 34 42 3 26 hhcurveto
          70 31 -9 -57 -55 -34 -11 -29 hvcurveto
          -78 -36 78 hlineto
          49 18 -21 -51 -58 -37 -9 -62 -21 -36 3 5 -53 hvcurveto
          -38 vlineto
          -5 33 46 -4 31 hhcurveto
          119 23 39 69 50 -23 25 -29 12 hvcurveto
          endchar
        </CharString>
        <CharString name="uni2206">
          53 37 hmoveto
          607 hlineto
          -277 687 rlineto
          -52 hlineto
          28 -60 rmoveto
          234 -583 rlineto
          -474 hlineto
          235 583 rlineto
          endchar
        </CharString>
        <CharString name="uniA78B">
          61 callsubr
          178 -48 vlineto
          endchar
        </CharString>
        <CharString name="uniA78C">
          61 callsubr
          233 -48 vlineto
          endchar
        </CharString>
        <CharString name="uniF8FF">
          212 72 hmoveto
          696 698 -696 hlineto
          545 -316 rmoveto
          -66 vlineto
          -100 -72 -81 -123 -125 -73 81 100 vhcurveto
          66 vlineto
          100 73 81 125 123 72 -81 -100 vhcurveto
          -134 -92 rmoveto
          118 vlineto
          33 -27 27 -34 -35 -27 -27 -33 vhcurveto
          -118 vlineto
          -33 27 -27 35 34 27 27 33 vhcurveto
          endchar
        </CharString>
        <CharString name="uogonek">
          -26 490 -158 rmoveto
          -35 -12 19 25 39 35 53 27 22 hvcurveto
          510 -46 -264 vlineto
          -7 callsubr
          4 -74 rlineto
          -39 -37 -28 -49 -43 vvcurveto
          -41 21 -32 59 11 5 0 1 10 vhcurveto
          38 vlineto
          -1 -8 -4 0 -5 hhcurveto
          endchar
        </CharString>
        <CharString name="uring">
          -27 300 609 -19 callgsubr
          167 -641 rmoveto
          -102 callsubr
          endchar
        </CharString>
        <CharString name="utilde">
          -27 473 742 rmoveto
          -32 hlineto
          -44 -4 -16 -30 -31 -33 -97 callgsubr
          38 -64 callgsubr
          -6 -742 rmoveto
          -102 callsubr
          endchar
        </CharString>
        <CharString name="v">
          -106 236 hmoveto
          51 hlineto
          202 510 rlineto
          -48 hlineto
          -176 -452 rlineto
          -6 hlineto
          -177 452 rlineto
          -49 hlineto
          endchar
        </CharString>
        <CharString name="w">
          177 545 hmoveto
          49 hlineto
          174 510 rlineto
          -48 hlineto
          -146 -442 rlineto
          -6 hlineto
          -141 442 rlineto
          -47 hlineto
          -140 -442 rlineto
          -6 hlineto
          -148 442 rlineto
          -49 hlineto
          174 -510 rlineto
          49 hlineto
          139 430 rlineto
          6 hlineto
          endchar
        </CharString>
        <CharString name="wacute">
          176 381 603 -94 callgsubr
          163 -608 -69 callgsubr
        </CharString>
        <CharString name="wcircumflex">
          176 270 603 -89 callgsubr
          274 -608 -69 callgsubr
        </CharString>
        <CharString name="wdieresis">
          176 286 -44 callsubr
          76 -730 -69 callgsubr
        </CharString>
        <CharString name="wgrave">
          176 398 603 -74 callgsubr
          272 -737 -69 callgsubr
        </CharString>
        <CharString name="x">
          -89 444 hmoveto
          57 hlineto
          -203 260 196 250 rlineto
          -55 hlineto
          -167 -212 rlineto
          -5 hlineto
          -166 212 rlineto
          -57 hlineto
          196 -251 -202 -259 rlineto
          54 hlineto
          174 221 rlineto
          5 hlineto
          endchar
        </CharString>
        <CharString name="y">
          -26 283 -206 rmoveto
          190 32 71 201 hvcurveto
          444 -46 -263 vlineto
          -121 -46 callgsubr
          146 -80 callsubr
          159 123 38 42 38 14 vhcurveto
          4 -27 hlineto
          -149 -14 -61 -170 -45 -60 2 5 -57 vhcurveto
          -42 vlineto
          -4 41 71 -3 58 hhcurveto
          endchar
        </CharString>
        <CharString name="y.loclGUA">
          -106 489 509 rmoveto
          1 -48 vlineto
          -176 -452 rlineto
          -6 hlineto
          -177 451 rlineto
          -49 hlineto
          203 -509 rlineto
          3 hlineto
          -75 -190 rlineto
          48 hlineto
          endchar
        </CharString>
        <CharString name="yacute">
          -26 278 603 -94 callgsubr
          5 -814 -98 callsubr
          endchar
        </CharString>
        <CharString name="yacute.loclGUA">
          -107 413 737 -25 callsubr
          202 -94 -78 callgsubr
          endchar
        </CharString>
        <CharString name="ycircumflex">
          -27 168 603 -89 callgsubr
          115 -814 -98 callsubr
          endchar
        </CharString>
        <CharString name="ycircumflex.loclGUA">
          -107 274 708 rmoveto
          100 -105 rlineto
          33 5 hlineto
          -105 -65 callgsubr
          -5 34 vlineto
          314 -94 -78 callgsubr
          endchar
        </CharString>
        <CharString name="ydieresis">
          -26 187 -44 callsubr
          -86 -936 -98 callsubr
          endchar
        </CharString>
        <CharString name="ydieresis.loclGUA">
          -107 208 43 callsubr
          99 -155 -78 callgsubr
          endchar
        </CharString>
        <CharString name="yen">
          -9 581 688 rmoveto
          -51 hlineto
          -136 -240 rlineto
          -168 hlineto
          -135 240 rlineto
          -53 hlineto
          139 -240 rlineto
          -104 -40 127 hlineto
          65 -113 rlineto
          -192 -40 212 -255 48 255 212 40 -192 hlineto
          66 113 rlineto
          126 40 -103 hlineto
          -129 -142 rmoveto
          -7 hlineto
          -57 102 rlineto
          122 hlineto
          endchar
        </CharString>
</ttFont>
